<?xml version="1.0" encoding="UTF-8"?>
<!DOCTYPE svg PUBLIC "-//W3C//DTD SVG 1.1//EN" "http://www.w3.org/Graphics/SVG/1.1/DTD/svg11.dtd">
<!-- Creator: CorelDRAW X7 -->
<svg xmlns="http://www.w3.org/2000/svg" xml:space="preserve" width="149.025mm" height="134.209mm" version="1.1" style="shape-rendering:geometricPrecision; text-rendering:geometricPrecision; image-rendering:optimizeQuality; fill-rule:evenodd; clip-rule:evenodd"
viewBox="0 0 3223 2902"
 xmlns:xlink="http://www.w3.org/1999/xlink">
 <defs>
  <style type="text/css">
   <![CDATA[
    .fil1 {fill:#A9ABAE}
    .fil0 {fill:#0F62AC}
    .fil9 {fill:#0F62AC;fill-rule:nonzero}
    .fil8 {fill:#05223D;fill-rule:nonzero}
    .fil4 {fill:#4C82B5;fill-rule:nonzero}
    .fil7 {fill:gray;fill-rule:nonzero}
    .fil6 {fill:#CCCCCC;fill-rule:nonzero}
    .fil5 {fill:#E03603;fill-rule:nonzero}
    .fil3 {fill:white;fill-rule:nonzero}
    .fil2 {fill:url(#id0)}
   ]]>
  </style>
  <linearGradient id="id0" gradientUnits="userSpaceOnUse" x1="3006.18" y1="700.687" x2="1946.24" y2="2240.01">
   <stop offset="0" style="stop-opacity:1; stop-color:red"/>
   <stop offset="0.231373" style="stop-opacity:1; stop-color:#AF0A0A"/>
   <stop offset="0.639216" style="stop-opacity:1; stop-color:#E20613"/>
   <stop offset="1" style="stop-opacity:1; stop-color:#E20613"/>
  </linearGradient>
 </defs>
 <g id="Layer_x0020_1">
  <metadata id="CorelCorpID_0Corel-Layer"/>
  <g id="_2115315480544">
   <path class="fil0" d="M601 2456c1,0 1,0 1,0 6,0 0,-10 -5,-16 -8,-13 -33,-41 -60,-58 -3,-2 -9,-5 -12,-5 -1,0 -2,0 -2,1 -15,7 61,75 78,78z"/>
   <path class="fil0" d="M1733 2631l0 -1c0,0 -1,0 -1,0 -1,0 -2,0 -4,1 -30,4 -138,36 -140,38 0,0 0,0 1,0 7,0 52,-9 90,-19 8,-2 46,-12 54,-19z"/>
   <path class="fil0" d="M1658 2640c5,-4 -4,-4 -8,-4 -42,1 -130,30 -131,35 0,2 2,2 7,2 16,0 56,-6 87,-15 28,-8 41,-14 45,-18z"/>
   <path class="fil0" d="M754 2451c1,-15 -14,-44 -50,-62 -6,-2 -11,-5 -19,-5 -1,-1 -3,-1 -4,-1 -23,0 -25,25 -3,51 18,21 41,33 57,33 10,0 18,-5 19,-16z"/>
   <path class="fil0" d="M605 2407c12,9 22,13 29,13 9,0 14,-6 12,-18 -2,-17 -21,-49 -55,-67 -5,-3 -13,-6 -20,-6 -1,0 -2,0 -3,0 -24,4 -2,50 37,78z"/>
   <path class="fil0" d="M1814 2608c3,0 25,-9 43,-16l35 -15 10 -4c5,-3 52,-24 55,-30l-4 1c-24,8 -135,60 -139,64z"/>
   <path class="fil0" d="M1842 2590c27,-12 42,-21 46,-26 4,-4 1,-5 -3,-5 -1,0 -2,0 -3,0 -38,7 -135,53 -135,61 1,1 2,1 4,1 13,0 58,-15 91,-31z"/>
   <path class="fil0" d="M1674 2626c19,0 57,-11 91,-26 22,-10 31,-18 34,-20 10,-9 8,-14 -6,-15 -44,3 -123,40 -129,55 -2,4 3,6 10,6z"/>
   <path class="fil0" d="M1672 2600c10,-5 16,-10 20,-12 5,-4 27,-23 -5,-27 -2,0 -3,0 -4,0 -50,0 -115,33 -118,51 -2,7 6,11 20,11 23,0 59,-9 87,-23z"/>
   <path class="fil0" d="M1484 2610c24,0 55,-7 79,-20l10 -6c14,-10 29,-30 -8,-37 -5,0 -9,-1 -14,-1 -47,0 -96,26 -101,45 -4,13 12,19 34,19z"/>
   <path class="fil0" d="M854 2431c15,0 28,-6 34,-20 8,-17 -1,-50 -45,-70 -11,-4 -21,-6 -29,-6 -28,0 -42,21 -33,46 10,30 45,50 73,50z"/>
   <path class="fil0" d="M728 2379c14,0 25,-7 28,-22 4,-18 -9,-54 -51,-75 -4,-2 -8,-3 -12,-5 -5,-1 -10,-2 -15,-2 -28,0 -38,27 -18,59 18,28 46,45 68,45z"/>
   <path class="fil0" d="M608 2322c13,0 21,-7 22,-23 0,-20 -16,-58 -55,-80 -6,-2 -15,-7 -24,-7 0,0 0,0 -1,0 -31,2 -26,46 9,83 17,18 36,27 49,27z"/>
   <path class="fil0" d="M2110 2445c-1,-1 -1,-1 -2,-1 0,0 -2,0 -4,1 -34,12 -128,75 -130,85l0 0c0,0 1,0 1,0 9,0 53,-24 87,-46 7,-5 46,-30 48,-39z"/>
   <path class="fil0" d="M1903 2545c15,0 56,-17 91,-40 22,-14 31,-24 35,-28 9,-10 9,-15 -1,-15 -1,0 -2,0 -3,0 -43,8 -125,64 -128,79 0,3 2,4 6,4z"/>
   <path class="fil0" d="M1929 2498c5,-4 27,-28 -3,-29 -48,2 -118,49 -124,71 -2,8 3,11 13,11 21,0 59,-14 92,-36 11,-7 18,-13 22,-17z"/>
   <path class="fil0" d="M1713 2547c24,0 60,-12 89,-32l6 -4c20,-16 38,-42 1,-47 -2,0 -3,0 -4,0 -53,0 -114,42 -118,66 -2,11 9,17 26,17z"/>
   <path class="fil0" d="M1680 2505c23,-18 37,-48 -7,-56 -4,-1 -8,-1 -12,-1 -53,0 -103,35 -105,60 -2,17 16,25 40,25 26,0 59,-9 84,-28z"/>
   <path class="fil0" d="M1388 2450c18,-18 22,-52 -29,-67 -10,-3 -20,-4 -28,-4 -46,0 -76,28 -77,51 -1,29 31,45 66,45 25,0 51,-8 68,-25z"/>
   <path class="fil0" d="M1172 2433c23,0 45,-8 59,-25 15,-19 15,-55 -37,-73 -10,-3 -20,-4 -30,-4 -40,0 -67,24 -65,52 3,31 38,50 73,50z"/>
   <path class="fil0" d="M1074 2359c13,-20 8,-58 -42,-78 -12,-4 -23,-5 -32,-5 -37,0 -59,24 -54,53 6,33 43,54 77,54 21,0 40,-7 51,-24z"/>
   <path class="fil0" d="M799 2275c12,33 47,53 77,53 19,0 36,-8 44,-25 9,-21 1,-61 -48,-83 -12,-4 -22,-6 -31,-6 -37,0 -53,31 -42,61z"/>
   <path class="fil0" d="M719 2154l-7 -3c-7,-2 -15,-4 -22,-4 -32,0 -49,32 -30,70 16,32 48,51 74,51 17,0 31,-9 36,-26 7,-22 -4,-65 -51,-88z"/>
   <path class="fil0" d="M598 2204c15,0 27,-9 30,-27 4,-24 -10,-68 -53,-93 -5,-2 -11,-5 -18,-6 -3,0 -6,-1 -9,-1 -35,0 -42,47 -9,91 18,24 41,36 59,36z"/>
   <path class="fil0" d="M175 1933c1,1 2,1 4,1 7,0 8,-14 4,-37 -6,-27 -24,-79 -48,-106 -3,-2 -7,-6 -11,-6 -1,0 -1,1 -2,1 -20,8 23,130 53,147z"/>
   <path class="fil0" d="M117 1868c4,0 3,-15 -4,-40 -6,-28 -24,-82 -41,-107l-6 -5c-14,4 30,137 49,151 1,1 1,1 2,1z"/>
   <path class="fil0" d="M35 1658l-1 -4 -1 0c0,4 2,11 5,23 9,36 25,84 36,120 4,10 4,10 5,12 0,-2 0,-6 -11,-45 -6,-19 -24,-83 -33,-106z"/>
   <path class="fil0" d="M2048 2347c-52,3 -118,62 -119,89 0,10 6,14 18,14 22,0 61,-17 92,-45 25,-23 44,-56 9,-58z"/>
   <path class="fil0" d="M1924 2405c24,-23 38,-57 -3,-63 -1,0 -2,0 -3,0 -53,0 -116,50 -115,82 0,15 12,22 30,22 26,0 63,-15 91,-41z"/>
   <path class="fil0" d="M1703 2430c28,0 63,-12 87,-37 22,-22 32,-58 -15,-68 -3,0 -7,0 -11,0 -54,0 -108,41 -107,75 1,20 21,30 46,30z"/>
   <path class="fil0" d="M1612 2296c-8,-2 -14,-2 -21,-2 -56,0 -97,38 -96,68 1,28 29,42 61,42 29,0 62,-11 83,-34 20,-23 25,-61 -27,-74z"/>
   <path class="fil0" d="M1397 2366c27,0 57,-10 74,-32 19,-23 20,-63 -35,-80 -9,-2 -18,-3 -26,-3 -53,0 -87,37 -84,68 4,31 36,47 71,47z"/>
   <path class="fil0" d="M1300 2288c16,-24 14,-65 -41,-85 -11,-3 -20,-4 -30,-4 -49,0 -78,36 -72,68 7,34 42,52 77,52 26,0 51,-10 66,-31z"/>
   <path class="fil0" d="M1070 2265c24,0 47,-10 59,-31 14,-24 9,-68 -45,-90 -12,-3 -23,-5 -32,-5 -46,0 -71,36 -62,69 9,36 46,57 80,57z"/>
   <path class="fil0" d="M912 2079c-11,-4 -22,-6 -31,-6 -44,0 -67,37 -52,77 14,34 49,53 80,53 22,0 42,-9 52,-30 11,-25 3,-70 -49,-94z"/>
   <path class="fil0" d="M798 2106c9,-25 -1,-73 -51,-98l-7 -3c-8,-3 -16,-5 -24,-5 -40,0 -62,41 -39,87 17,33 48,51 75,51 20,0 38,-10 46,-32z"/>
   <path class="fil0" d="M536 2020c18,31 45,47 67,47 18,0 34,-10 40,-32 6,-27 -5,-76 -52,-103 -4,-1 -9,-3 -12,-5 -6,-1 -11,-2 -16,-2 -39,0 -55,47 -27,95z"/>
   <path class="fil0" d="M71 1696c1,1 2,1 3,1 6,0 9,-16 7,-42 -2,-32 -14,-88 -31,-114l-8 -6c-20,4 5,145 29,161z"/>
   <path class="fil0" d="M31 1585c-3,-31 -12,-88 -21,-112 -1,-4 -1,-4 -3,-4 -5,9 12,159 25,162 3,-5 1,-28 -1,-46z"/>
   <path class="fil0" d="M2034 2269c21,-26 32,-67 -12,-73 -1,0 -1,0 -2,0 -56,0 -116,59 -111,98 2,18 16,26 34,26 27,0 65,-18 91,-51z"/>
   <path class="fil0" d="M1892 2257c20,-26 27,-69 -23,-79 -3,0 -6,0 -10,0 -57,0 -110,49 -105,89 2,25 23,36 48,36 30,0 66,-16 90,-46z"/>
   <path class="fil0" d="M1731 2232c18,-25 25,-70 -34,-85 -6,-1 -13,-2 -19,-2 -62,0 -105,51 -97,87 6,29 33,43 64,43 31,0 65,-15 86,-43z"/>
   <path class="fil0" d="M1371 2145c17,-27 14,-74 -44,-95 -10,-3 -20,-4 -29,-4 -56,0 -89,47 -78,86 10,33 44,51 79,51 28,0 57,-12 72,-38z"/>
   <path class="fil0" d="M1123 2125c27,0 53,-12 66,-37 15,-27 11,-76 -46,-100 -12,-3 -22,-5 -32,-5 -53,0 -82,47 -69,86 12,37 47,56 81,56z"/>
   <path class="fil0" d="M1010 2023c14,-27 7,-78 -48,-104 -12,-4 -23,-6 -32,-6 -50,0 -74,47 -61,87 13,39 48,60 82,60 24,0 48,-12 59,-37z"/>
   <path class="fil0" d="M783 1988c23,0 44,-11 54,-36 12,-28 4,-80 -48,-107 -11,-5 -22,-7 -31,-7 -47,0 -72,49 -52,95 16,36 48,55 77,55z"/>
   <path class="fil0" d="M672 1877c10,-29 2,-83 -47,-111l-6 -3c-9,-3 -16,-5 -24,-5 -42,0 -66,52 -40,105 16,33 44,50 69,50 21,0 40,-12 48,-36z"/>
   <path class="fil0" d="M519 1797c9,-29 0,-84 -44,-113 -4,-2 -9,-4 -13,-5 -5,-2 -10,-3 -14,-3 -41,0 -61,60 -31,114 16,30 39,45 60,45 19,0 35,-12 42,-38z"/>
   <path class="fil0" d="M344 1755c16,0 31,-13 36,-39 7,-30 -1,-86 -41,-115 -4,-3 -9,-6 -16,-7 -2,-1 -5,-1 -7,-1 -40,0 -53,75 -18,129 14,22 31,33 46,33z"/>
   <path class="fil0" d="M209 1510c-2,0 -4,-1 -6,-1 -38,0 -44,93 -6,144 10,14 20,21 30,21 14,0 26,-14 31,-40 6,-31 -2,-88 -35,-117 -4,-3 -8,-6 -14,-7z"/>
   <path class="fil0" d="M49 1510c3,4 6,6 9,6 8,0 15,-16 18,-43 3,-33 -2,-91 -19,-118l-7 -6c-1,0 -2,0 -3,0 -25,0 -24,127 2,161z"/>
   <path class="fil0" d="M11 1445c1,1 1,1 2,1 4,0 8,-18 9,-47 2,-30 2,-79 -4,-107 -1,-3 -2,-6 -3,-9l-3 -4c-1,0 -1,0 -1,0 -3,0 -5,5 -7,13 -7,38 -5,142 7,153z"/>
   <path class="fil0" d="M2041 2169c29,0 66,-21 89,-58 18,-31 24,-77 -21,-84 0,0 -1,0 -1,0 -58,0 -113,69 -104,113 4,20 19,29 37,29z"/>
   <path class="fil0" d="M1982 2098c19,-30 22,-79 -30,-89 -3,0 -5,-1 -8,-1 -63,0 -115,64 -101,110 7,23 27,34 51,34 31,0 68,-19 88,-54z"/>
   <path class="fil0" d="M1254 1923c16,-31 12,-85 -47,-109 -11,-3 -21,-5 -30,-5 -56,0 -89,53 -76,97 11,39 46,60 82,60 28,0 56,-14 71,-43z"/>
   <path class="fil0" d="M1002 1897c27,0 53,-13 67,-41 14,-31 10,-87 -47,-113 -11,-4 -21,-5 -31,-5 -54,0 -87,53 -68,103 14,37 47,56 79,56z"/>
   <path class="fil0" d="M828 1822c25,0 49,-12 61,-40 14,-31 9,-87 -44,-115 -12,-5 -22,-7 -32,-7 -50,0 -81,54 -63,104 14,38 47,58 78,58z"/>
   <path class="fil0" d="M718 1704c13,-32 9,-89 -41,-118l-7 -3c-8,-3 -16,-4 -23,-4 -46,0 -78,56 -55,112 14,34 43,53 70,53 23,0 45,-14 56,-40z"/>
   <path class="fil0" d="M2204 1945c14,-28 13,-72 -32,-81 -2,0 -4,0 -6,0 -55,0 -97,59 -82,100 7,21 25,31 45,31 28,0 60,-18 75,-50z"/>
   <path class="fil0" d="M1063 1719c28,0 57,-16 72,-47 16,-33 13,-92 -43,-119 -11,-3 -21,-5 -30,-5 -56,0 -94,59 -77,112 13,38 45,59 78,59z"/>
   <path class="fil0" d="M885 1642c27,0 54,-14 68,-45 16,-33 14,-92 -40,-120 -10,-4 -20,-6 -30,-6 -56,0 -92,63 -71,118 14,35 44,53 73,53z"/>
   <path class="fil0" d="M538 2417c0,-1 -1,-4 -14,-19 -3,-5 -37,-44 -64,-64 -3,-2 -7,-4 -10,-4 0,0 -1,0 -1,0 0,1 -4,8 35,45 11,11 46,42 53,42 0,0 1,0 1,0z"/>
   <path class="fil0" d="M393 2286c-5,-4 -6,-4 -7,-4 0,12 84,92 95,96 -1,-2 -3,-5 -21,-23 -42,-47 -57,-61 -67,-69z"/>
   <path class="fil0" d="M531 2368c4,2 8,3 10,3 8,0 10,-7 5,-21 -5,-17 -27,-52 -60,-72 -4,-2 -10,-6 -16,-6 -1,0 -2,0 -3,1 -21,7 26,76 64,95z"/>
   <path class="fil0" d="M455 2321c1,0 2,0 3,0 6,0 5,-9 -2,-24 -10,-19 -35,-57 -63,-77 -4,-2 -9,-5 -13,-5 -1,0 -2,0 -3,0 -17,12 54,98 78,106z"/>
   <path class="fil0" d="M384 2271c1,0 1,0 1,0 6,0 -4,-19 -9,-28 -11,-18 -38,-60 -64,-81l-10 -5c-13,7 60,107 82,114z"/>
   <path class="fil0" d="M246 2105c-4,-4 -4,-4 -6,-4 -8,7 70,111 86,120l1 0c-1,-1 -1,-5 -18,-31 -6,-10 -41,-63 -63,-85z"/>
   <path class="fil0" d="M498 2264c10,0 16,-9 15,-25 -3,-22 -23,-63 -59,-85 -4,-3 -12,-7 -19,-7 -1,0 -1,0 -2,0 -31,3 -6,72 38,106 10,7 19,11 27,11z"/>
   <path class="fil0" d="M384 2199c5,4 10,6 14,6 9,0 12,-11 8,-28 -5,-22 -26,-66 -59,-90 -4,-2 -10,-6 -16,-6 -1,0 -1,0 -2,0 -27,4 13,90 55,118z"/>
   <path class="fil0" d="M307 2144c2,0 3,1 4,1 7,0 8,-12 1,-31 -7,-24 -30,-70 -58,-93 -3,-3 -8,-6 -12,-6 -1,0 -1,0 -2,0 -21,6 34,112 67,129z"/>
   <path class="fil0" d="M239 2085c1,1 1,1 1,1 5,0 3,-13 -6,-35 -10,-26 -34,-73 -56,-96l-10 -5c-12,9 51,129 71,135z"/>
   <path class="fil0" d="M122 1891c-4,-4 -4,-4 -5,-4 -5,10 58,136 70,141 0,-1 1,-4 -14,-38 -2,-3 -32,-71 -51,-99z"/>
   <path class="fil0" d="M472 2138c14,0 23,-10 24,-30 1,-25 -15,-71 -55,-96 -6,-3 -12,-6 -20,-7 -1,0 -1,0 -2,0 -35,0 -31,61 8,106 16,18 32,27 45,27z"/>
   <path class="fil0" d="M359 2070c11,0 18,-11 17,-32 -1,-26 -19,-74 -54,-100 -4,-2 -12,-7 -19,-7 -1,0 -1,0 -2,1 -33,4 -12,85 32,125 10,9 19,13 26,13z"/>
   <path class="fil0" d="M247 1996c5,4 9,6 13,6 10,0 14,-13 11,-35 -4,-25 -21,-76 -52,-103 -4,-2 -9,-6 -15,-6 -1,0 -1,0 -2,0 -28,6 4,106 45,138z"/>
   <path class="fil0" d="M448 1855c-5,-3 -11,-6 -17,-7 -3,-1 -6,-1 -8,-1 -39,0 -47,62 -12,112 17,23 37,35 54,35 16,0 29,-11 33,-34 5,-27 -8,-78 -50,-105z"/>
   <path class="fil0" d="M340 1919c14,0 25,-12 27,-35 3,-28 -10,-81 -48,-109 -6,-3 -11,-6 -19,-7 -1,0 -1,0 -2,0 -38,0 -36,78 3,127 14,16 27,24 39,24z"/>
   <path class="fil0" d="M231 1844c12,0 21,-13 22,-37 0,-30 -13,-84 -45,-111 -5,-4 -10,-7 -16,-8 0,0 0,0 -1,0 -35,0 -24,97 16,141 9,10 17,15 24,15z"/>
   <path class="fil0" d="M105 1610c-30,0 -11,118 25,153 4,4 8,6 12,6 9,0 15,-14 14,-39 -1,-31 -13,-86 -38,-113 -5,-3 -8,-7 -13,-7z"/>
   <path class="fil0" d="M128 1434c-4,-3 -9,-7 -15,-7 0,0 0,0 0,0 -34,0 -33,115 1,156 6,8 12,11 17,11 12,0 21,-15 25,-42 4,-31 -2,-89 -28,-118z"/>
   <path class="fil0" d="M2301 2292c-21,16 -117,102 -118,108 4,-1 10,-6 23,-17l20 -17 53 -48c23,-21 25,-26 26,-27l0 0 -4 1z"/>
   <path class="fil0" d="M2207 2371c18,-16 32,-31 37,-41 5,-7 3,-9 0,-9 -2,0 -3,0 -5,1 -39,14 -119,89 -119,103 0,1 1,2 3,2 11,0 49,-25 84,-56z"/>
   <path class="fil0" d="M2044 2444c17,0 56,-21 89,-51 6,-5 12,-11 16,-16 4,-4 33,-37 8,-37 -1,0 -2,0 -3,0 -45,9 -116,72 -118,95 -1,6 2,9 8,9z"/>
   <path class="fil0" d="M2356 2204c6,-10 17,-30 4,-30 -1,0 -2,0 -4,0 -39,16 -110,103 -105,122 1,2 2,4 5,4 13,0 48,-29 78,-66 9,-11 17,-22 22,-30z"/>
   <path class="fil0" d="M2269 2194c0,0 -1,0 -2,0 -45,9 -111,82 -108,113 0,7 5,10 12,10 19,0 56,-24 85,-60 23,-26 40,-63 13,-63z"/>
   <path class="fil0" d="M2066 2324c24,0 62,-21 90,-55 22,-27 37,-66 -1,-68 -52,4 -115,71 -111,106 2,12 10,17 22,17z"/>
   <path class="fil0" d="M2361 2098c18,-30 31,-73 1,-73 0,0 -1,0 -1,0 -46,9 -103,95 -95,130 2,8 7,12 15,12 20,0 55,-28 80,-69z"/>
   <path class="fil0" d="M2256 2111c19,-31 28,-76 -10,-79 -53,4 -109,82 -100,122 3,14 12,20 25,20 25,0 62,-24 85,-63z"/>
   <path class="fil0" d="M2338 1930c15,-35 18,-85 -21,-87 -56,5 -104,98 -84,141 5,13 15,18 26,18 25,0 60,-28 79,-72z"/>
   <path class="fil0" d="M1494 2684c-12,1 -24,3 -35,4 12,-1 17,-2 35,-4z"/>
   <path class="fil0" d="M1369 2692c4,1 47,0 87,-4 20,-2 45,-6 51,-8l0 -1c-2,-1 -3,-1 -6,-1 -24,1 -129,14 -132,14z"/>
   <path class="fil0" d="M1434 2678c-1,-1 -3,-2 -9,-2 -4,-1 -7,-1 -10,-1 -39,0 -104,10 -110,13l0 1c5,2 50,3 87,-1 7,-1 40,-5 42,-10z"/>
   <path class="fil0" d="M1128 2675c22,3 52,7 74,10 16,1 25,1 27,0 -1,-1 -2,-2 -8,-3 -31,-4 -62,-3 -93,-7z"/>
   <path class="fil0" d="M1348 2674c5,-4 1,-7 -11,-9 -7,-1 -15,-1 -23,-1 -38,0 -82,9 -84,13 -2,6 52,9 88,5 14,-2 25,-5 30,-8z"/>
   <path class="fil0" d="M1157 2673c-1,-1 -5,-2 -12,-4 -22,-5 -60,-7 -76,-7 -4,0 -6,0 -6,1 1,0 2,0 7,1l22 5c6,1 23,4 39,5 9,1 24,2 26,-1z"/>
   <path class="fil0" d="M1233 2668c8,-1 14,-3 18,-5 4,-2 14,-9 -13,-15 -10,-3 -21,-3 -32,-3 -29,0 -55,7 -59,13 -8,11 51,16 86,10z"/>
   <path class="fil0" d="M1077 2659c2,-1 7,-4 -13,-9 -17,-5 -34,-6 -46,-6 -10,0 -17,1 -18,2l0 0c3,3 43,13 63,14 9,0 13,-1 14,-1z"/>
   <path class="fil0" d="M1534 2658c21,-6 29,-12 32,-14 9,-6 6,-10 -8,-12 -2,0 -4,0 -6,0 -46,0 -112,23 -116,33 -4,10 54,6 98,-7z"/>
   <path class="fil0" d="M945 2632l8 2 -8 -2c0,0 0,0 0,0z"/>
   <path class="fil0" d="M982 2626c-14,-4 -25,-5 -34,-5 -7,0 -12,1 -14,2 -4,7 44,19 59,18 4,0 6,-1 7,-1 3,-2 2,-7 -18,-14z"/>
   <path class="fil0" d="M1140 2648c4,-1 8,-2 9,-3 7,-4 12,-14 -16,-22 -11,-3 -22,-4 -32,-4 -23,0 -41,6 -44,13 -8,15 52,24 83,16z"/>
   <path class="fil0" d="M1441 2650c9,-3 18,-7 22,-10 6,-5 17,-15 -11,-20 -5,-1 -10,-1 -16,-1 -43,0 -90,17 -95,30 -7,16 59,15 100,1z"/>
   <path class="fil0" d="M1336 2633l9 -4c12,-6 25,-22 -12,-31 -8,-1 -17,-2 -25,-2 -38,0 -70,14 -75,27 -9,22 64,27 103,10z"/>
   <path class="fil0" d="M900 2599c-11,-4 -19,-5 -24,-5 -7,0 -9,1 -10,3 -4,9 48,25 57,22 7,-2 1,-12 -23,-20z"/>
   <path class="fil0" d="M827 2589l11 5c-1,-1 -1,-1 -2,-1l-9 -4z"/>
   <path class="fil0" d="M1044 2623c13,-6 14,-20 -18,-31 -11,-3 -21,-5 -29,-5 -18,0 -30,6 -33,13 -6,18 53,35 80,23z"/>
   <polygon class="fil0" points="782,2570 791,2574 785,2571 "/>
   <path class="fil0" d="M1221 2609c20,-11 21,-30 -16,-41 -10,-2 -19,-3 -28,-3 -32,0 -56,13 -59,26 -6,27 69,36 103,18z"/>
   <path class="fil0" d="M821 2568c-4,-1 -11,-4 -17,-5 -1,0 -1,0 -2,0 -6,0 -8,3 -4,7 7,10 55,33 56,24 1,-4 -10,-16 -33,-26z"/>
   <path class="fil0" d="M920 2557c-11,-4 -19,-5 -26,-5 -15,0 -23,6 -23,13 0,23 60,44 78,28 9,-9 1,-25 -29,-36z"/>
   <path class="fil0" d="M788 2571c1,0 3,0 0,-4 -5,-6 -21,-21 -44,-32 -3,-1 -10,-4 -14,-4 -1,0 -2,0 -3,0 -8,5 46,38 61,40z"/>
   <path class="fil0" d="M1102 2577c16,-12 11,-33 -25,-46 -12,-3 -21,-4 -30,-4 -27,0 -44,12 -45,25 -2,31 70,49 100,25z"/>
   <path class="fil0" d="M1439 2571c22,-14 33,-38 -11,-49 -8,-1 -15,-2 -23,-2 -45,0 -82,22 -85,41 -5,32 74,39 119,10z"/>
   <path class="fil0" d="M817 2517l-5 -2c-6,-2 -13,-3 -18,-3 -13,0 -19,7 -13,18 13,27 67,48 74,29 3,-9 -7,-29 -38,-42z"/>
   <path class="fil0" d="M724 2538c-19,-17 -37,-30 -52,-37l-12 -4c-2,1 5,9 22,20 14,9 47,28 50,28 0,-1 -1,-2 -8,-7z"/>
   <path class="fil0" d="M1304 2542c21,-16 19,-42 -23,-55 -10,-2 -19,-3 -28,-3 -40,0 -67,21 -69,39 -3,36 80,50 120,19z"/>
   <path class="fil0" d="M983 2540c11,-14 1,-38 -34,-52 -11,-3 -20,-5 -29,-5 -23,0 -34,13 -34,25 2,35 75,59 97,32z"/>
   <path class="fil0" d="M718 2514c26,20 49,23 46,7 -1,-10 -17,-32 -47,-47 -4,-2 -12,-5 -18,-5 -1,0 -2,0 -2,0 -18,2 -7,25 21,45z"/>
   <path class="fil0" d="M605 2465c-5,-3 -6,-4 -7,-4 -1,0 -1,0 -1,0 0,3 14,15 51,37l33 20c-5,-4 -11,-7 -16,-11 -51,-38 -51,-38 -60,-42z"/>
   <path class="fil0" d="M1164 2505c15,-15 15,-44 -31,-60 -11,-3 -21,-4 -30,-4 -34,0 -55,18 -56,36 -2,43 83,63 117,28z"/>
   <path class="fil0" d="M824 2441c-10,-4 -19,-6 -26,-6 -21,0 -30,14 -24,31 15,39 81,61 93,32 5,-14 -5,-40 -43,-57z"/>
   <path class="fil0" d="M669 2493c11,4 14,0 9,-11 -6,-12 -26,-38 -54,-53 -4,-2 -11,-5 -16,-5 -2,0 -3,0 -4,1 -15,7 36,57 65,68z"/>
   <path class="fil0" d="M1541 2483c21,-18 29,-50 -20,-62 -7,-1 -15,-2 -21,-2 -51,0 -90,30 -92,55 -1,43 87,49 133,9z"/>
   <path class="fil0" d="M1025 2461c12,-16 7,-47 -39,-65 -11,-4 -21,-5 -30,-5 -32,0 -49,19 -44,42 10,44 89,64 113,28z"/>
   <path class="fil1" d="M20 1253c1,2 2,3 4,3 6,0 14,-18 20,-48 8,-34 15,-92 7,-117l-4 -5c0,0 -1,0 -1,0 -19,0 -42,144 -26,167z"/>
   <path class="fil1" d="M7 1192c3,-7 9,-32 12,-51 7,-32 18,-92 19,-114l0 -3 -1 0c-2,4 -4,12 -8,29 -7,33 -14,78 -20,111 -4,26 -3,27 -2,28z"/>
   <path class="fil1" d="M1705 1851c16,-33 12,-89 -48,-109 -7,-1 -13,-2 -20,-2 -64,0 -108,65 -88,117 11,31 41,47 72,47 32,0 67,-18 84,-53z"/>
   <path class="fil1" d="M2673 1590l0 -1c0,0 -1,1 -1,2l1 -1z"/>
   <path class="fil1" d="M2674 1544l-2 2c-12,24 -41,158 -33,165 7,-6 21,-61 28,-96 3,-16 13,-67 7,-71z"/>
   <path class="fil1" d="M2636 1587c-1,0 -3,0 -4,1 -27,23 -53,146 -39,163 1,1 2,2 3,2 11,0 31,-42 41,-91 7,-33 11,-75 -1,-75z"/>
   <path class="fil1" d="M1954 1696c12,-32 9,-89 -50,-105 -5,-1 -10,-1 -14,-1 -65,0 -105,69 -84,122 13,30 39,44 66,44 33,0 68,-20 82,-60z"/>
   <path class="fil1" d="M1689 1713c32,0 66,-19 81,-56 14,-34 7,-91 -51,-110 -7,-1 -14,-2 -20,-2 -63,0 -103,65 -82,119 13,33 42,49 72,49z"/>
   <path class="fil1" d="M1581 1606c15,-33 9,-91 -49,-112 -8,-2 -17,-3 -24,-3 -61,0 -100,62 -81,115 13,36 43,53 75,53 31,0 64,-17 79,-53z"/>
   <path class="fil1" d="M211 719c-1,-1 -2,-1 -4,-1 -25,0 -83,111 -75,148 1,6 4,8 8,8 9,0 25,-15 41,-43 18,-30 40,-84 33,-108l-3 -4z"/>
   <path class="fil1" d="M122 810c5,0 18,-18 34,-46 18,-30 44,-82 46,-103l-1 -3c-1,-1 -1,-1 -2,-1 -15,0 -84,130 -79,151 0,1 1,2 2,2z"/>
   <path class="fil1" d="M2583 1420c-1,0 -2,0 -3,0 -36,16 -48,132 -24,160 3,5 7,6 11,6 17,0 35,-37 39,-86 3,-34 -2,-80 -23,-80z"/>
   <path class="fil1" d="M2495 1438c0,0 -1,0 -1,0 -44,11 -62,118 -35,156 6,7 12,11 19,11 21,0 45,-34 50,-81 4,-36 -3,-86 -33,-86z"/>
   <path class="fil1" d="M2112 1424c-2,0 -4,-1 -6,-1 -61,0 -94,83 -66,134 13,23 32,33 51,33 30,0 62,-24 72,-66 8,-36 -2,-90 -51,-100z"/>
   <path class="fil1" d="M2002 1499c10,-35 -1,-91 -55,-105 -4,-1 -8,-1 -12,-1 -64,0 -100,77 -70,130 14,25 37,37 61,37 32,0 64,-22 76,-61z"/>
   <path class="fil1" d="M1824 1460c11,-34 3,-90 -53,-108 -7,-1 -12,-2 -18,-2 -63,0 -100,73 -72,126 14,28 40,41 66,41 32,0 64,-20 77,-57z"/>
   <path class="fil1" d="M1641 1412c13,-34 7,-91 -49,-111 -7,-2 -15,-3 -22,-3 -61,0 -100,69 -74,123 14,29 41,43 69,43 31,0 62,-18 76,-52z"/>
   <path class="fil1" d="M1384 1405c30,0 60,-17 75,-51 7,-17 10,-40 4,-62 -7,-20 -21,-39 -48,-51 -8,-2 -17,-4 -25,-4 -36,0 -65,25 -77,55 -8,21 -9,44 0,65 14,32 42,48 71,48z"/>
   <path class="fil1" d="M807 1132c8,35 35,53 64,53 26,0 53,-14 70,-43 19,-31 24,-87 -22,-114 -10,-4 -20,-6 -30,-6 -51,0 -94,58 -82,110z"/>
   <path class="fil1" d="M331 561c-2,-1 -4,-2 -6,-2 -28,0 -100,98 -93,134 1,5 4,8 9,8 11,0 29,-13 49,-38 22,-27 50,-75 44,-98l-3 -4z"/>
   <path class="fil1" d="M223 638c6,0 22,-15 42,-39 22,-27 54,-74 56,-93l-1 -4c-1,0 -1,-1 -1,-1 -20,0 -105,116 -99,135 1,1 2,2 3,2z"/>
   <path class="fil1" d="M269 543c1,0 54,-67 67,-87l1 -2 0 0c-2,1 -4,2 -12,12l-24 28 -60 79c-5,7 -6,9 -7,11l0 1c5,-5 17,-18 35,-42z"/>
   <path class="fil1" d="M2692 1254c-2,-31 -9,-74 -12,-105l-3 -19c-3,-21 -4,-22 -5,-22l0 3c1,21 17,157 20,160 0,-1 1,-4 0,-17z"/>
   <path class="fil1" d="M2492 1406c21,0 38,-34 37,-81 0,-10 -1,-22 -3,-33 -6,-27 -19,-53 -40,-53 0,0 0,0 0,0 -18,5 -29,27 -33,53 -6,39 2,86 22,105 6,6 11,9 17,9z"/>
   <path class="fil1" d="M2429 1292c-7,-24 -21,-44 -43,-46 -21,2 -35,21 -42,46 -10,38 -3,88 21,110 7,7 15,10 23,10 24,0 45,-31 46,-76 1,-13 -1,-29 -5,-44z"/>
   <path class="fil1" d="M2315 1292c-8,-24 -23,-47 -48,-50 -28,-1 -46,22 -53,50 -9,33 -4,74 17,98 10,12 22,18 33,18 27,0 52,-28 55,-72 1,-13 0,-29 -4,-44z"/>
   <path class="fil1" d="M2123 1391c28,0 56,-25 62,-66 1,-10 1,-21 -1,-33 -5,-29 -21,-59 -54,-66 -2,-1 -4,-1 -5,-1 -36,0 -59,32 -64,67 -4,25 1,53 16,73 13,18 29,26 46,26z"/>
   <path class="fil1" d="M2034 1292c4,-34 -11,-81 -57,-94 -4,-1 -8,-1 -12,-1 -48,0 -76,49 -70,95 2,14 7,28 16,40 14,21 34,30 54,30 30,0 60,-22 68,-61 1,-3 1,-6 1,-9z"/>
   <path class="fil1" d="M1852 1292c6,-7 10,-16 13,-27 10,-34 0,-89 -53,-106 -5,-1 -11,-2 -16,-2 -59,0 -92,73 -64,125 2,4 4,7 7,10 14,20 35,30 56,30 22,0 43,-10 57,-30z"/>
   <path class="fil1" d="M1622 1272c29,0 59,-18 71,-53 12,-33 5,-88 -47,-108 -7,-2 -13,-2 -20,-2 -58,0 -94,68 -69,120 14,29 39,43 65,43z"/>
   <path class="fil1" d="M1522 1165c14,-32 10,-87 -41,-109 -8,-2 -15,-4 -23,-4 -57,0 -95,65 -74,117 12,30 39,45 66,45 28,0 58,-16 72,-49z"/>
   <path class="fil1" d="M1216 1102c10,32 37,48 65,48 27,0 56,-16 72,-46 16,-32 16,-86 -33,-110 -9,-3 -17,-4 -26,-4 -55,0 -96,61 -78,112z"/>
   <path class="fil1" d="M1055 1030c8,33 35,49 63,49 26,0 54,-14 71,-42 18,-31 23,-85 -24,-109 -9,-4 -18,-5 -27,-5 -53,0 -96,57 -83,107z"/>
   <path class="fil1" d="M476 324l1 -2c-14,1 -121,104 -120,113 6,-1 27,-19 43,-34 18,-16 65,-60 76,-77z"/>
   <path class="fil1" d="M429 358l0 1 22 -20c-8,6 -15,13 -22,19z"/>
   <path class="fil1" d="M455 335l-4 4c3,-3 5,-5 8,-8l-4 4z"/>
   <path class="fil1" d="M1580 982c13,-32 10,-84 -36,-104 -7,-2 -14,-3 -21,-3 -52,0 -89,63 -70,112 11,28 35,42 60,42 26,0 54,-16 67,-47z"/>
   <path class="fil1" d="M1010 790c3,30 26,46 53,46 23,0 50,-12 69,-38 21,-27 32,-76 -6,-99 -9,-4 -18,-6 -27,-6 -48,0 -95,51 -89,97z"/>
   <path class="fil1" d="M869 559c-46,0 -100,50 -101,92 0,27 19,40 43,40 21,0 47,-10 68,-32 25,-25 46,-70 16,-94 -8,-4 -17,-6 -26,-6z"/>
   <path class="fil1" d="M493 355c10,0 30,-10 55,-27 27,-18 71,-53 74,-70l0 -1c-1,-2 -3,-3 -6,-3 -25,0 -120,67 -127,94 -2,5 0,7 4,7z"/>
   <path class="fil1" d="M1571 853c25,0 50,-16 62,-46 11,-29 9,-78 -32,-96 -5,-1 -11,-2 -16,-2 -50,0 -85,66 -64,111 11,22 30,33 50,33z"/>
   <path class="fil1" d="M1106 491c-46,0 -100,48 -99,87 0,23 18,37 42,37 21,0 46,-10 68,-32 23,-24 43,-66 13,-86 -8,-4 -16,-6 -24,-6z"/>
   <path class="fil1" d="M1011 432c-43,0 -101,40 -106,81 -3,24 13,36 36,36 21,0 46,-9 69,-29 26,-22 50,-62 24,-82 -6,-4 -15,-6 -23,-6z"/>
   <path class="fil1" d="M817 452c-4,21 10,31 31,31 19,0 44,-9 68,-26 27,-20 57,-58 36,-79 -7,-4 -15,-6 -24,-6 -43,0 -106,41 -111,80z"/>
   <path class="fil1" d="M692 334c-4,14 4,20 19,20 16,0 39,-7 64,-21 31,-18 70,-51 59,-69 -4,-4 -10,-6 -18,-6 -39,0 -115,42 -124,76z"/>
   <path class="fil1" d="M650 240c-1,4 1,6 7,6 11,0 32,-7 59,-20 29,-15 77,-43 80,-56l0 -2c-1,-2 -4,-3 -8,-3 -30,0 -130,52 -138,75z"/>
   <path class="fil1" d="M729 158c-33,16 -69,39 -67,45 0,1 1,1 2,1 9,0 34,-11 55,-21 0,0 76,-35 88,-50l0 -2c0,-1 -1,-1 -3,-1 -10,0 -40,10 -75,28z"/>
   <path class="fil1" d="M836 104l2 -2c-13,0 -139,59 -145,68 2,0 7,-2 49,-21 82,-37 89,-42 94,-45z"/>
   <path class="fil1" d="M1654 558c-4,-1 -9,-2 -13,-2 -43,0 -75,61 -58,102 9,20 25,29 42,29 22,0 44,-15 55,-43 9,-26 8,-72 -26,-86z"/>
   <path class="fil1" d="M1462 610c6,20 23,30 42,30 21,0 44,-12 58,-39 14,-25 18,-68 -14,-84 -6,-1 -11,-2 -16,-2 -43,0 -82,56 -70,95z"/>
   <path class="fil1" d="M1138 449c-2,20 13,31 36,31 19,0 43,-8 65,-28 24,-20 46,-57 22,-74 -7,-2 -14,-4 -21,-4 -41,0 -98,38 -102,75z"/>
   <path class="fil1" d="M1049 397c-2,17 11,27 32,27 18,0 42,-8 67,-25 24,-17 55,-52 33,-70 -6,-3 -14,-4 -22,-4 -42,0 -105,37 -110,72z"/>
   <path class="fil1" d="M835 195c-2,7 4,10 15,10 14,0 36,-5 63,-15 20,-8 79,-33 77,-48 -3,-3 -9,-5 -17,-5 -40,0 -130,35 -138,58z"/>
   <path class="fil1" d="M969 101c-37,0 -134,34 -142,54 -2,4 2,6 9,6 12,0 33,-4 60,-13 23,-8 83,-30 86,-42l0 -1c-2,-3 -7,-4 -13,-4z"/>
   <path class="fil1" d="M841 125c9,0 29,-5 58,-13 3,-1 82,-25 92,-37l1 -1c-1,-2 -5,-2 -9,-2 -32,0 -137,33 -146,50 -1,2 0,3 4,3z"/>
   <path class="fil1" d="M919 82c56,-16 88,-26 96,-31l2 -1c-1,-1 -2,-1 -5,-1 -23,0 -131,32 -148,45l0 1c0,0 0,0 1,0 3,0 10,0 54,-13z"/>
   <path class="fil1" d="M1618 389c-4,-1 -8,-2 -12,-2 -36,0 -77,52 -64,89 5,14 17,21 31,21 18,0 38,-12 51,-36 12,-22 18,-60 -6,-72z"/>
   <path class="fil1" d="M1445 429c2,17 15,26 31,26 18,0 39,-10 57,-32 16,-20 28,-55 5,-68 -4,-2 -8,-2 -13,-2 -35,0 -82,42 -80,76z"/>
   <path class="fil1" d="M1463 318c-5,-1 -10,-2 -15,-2 -36,0 -89,37 -92,68 -1,17 11,27 29,27 18,0 40,-9 60,-28 20,-19 39,-51 18,-65z"/>
   <path class="fil1" d="M1376 278c-39,0 -99,35 -102,65 -2,14 9,22 27,22 17,0 40,-8 63,-24 18,-13 50,-46 30,-60 -5,-2 -11,-3 -18,-3z"/>
   <path class="fil1" d="M1201 296c-5,14 6,22 25,22 17,0 40,-6 64,-20 25,-14 58,-42 42,-55 -6,-3 -13,-4 -21,-4 -38,0 -102,29 -110,57z"/>
   <path class="fil1" d="M1022 129c-3,6 4,9 18,9 14,0 35,-3 60,-9 1,0 84,-19 83,-32 -4,-4 -13,-6 -26,-6 -44,0 -126,20 -135,38z"/>
   <path class="fil1" d="M1030 102c13,0 33,-2 58,-7 3,-1 85,-16 89,-27 -2,-3 -11,-5 -24,-5 -43,0 -130,18 -138,33 -2,4 3,6 15,6z"/>
   <path class="fil1" d="M1022 69c1,1 2,3 12,3 9,0 25,-2 55,-6 15,-2 87,-14 95,-21l0 -1c-2,-3 -11,-4 -22,-4 -44,0 -136,17 -140,29z"/>
   <path class="fil1" d="M1045 46c1,1 3,1 8,1 7,0 22,-1 52,-5 88,-11 95,-15 98,-16l0 -1c-2,-2 -9,-3 -19,-3 -42,0 -132,14 -139,24z"/>
   <path class="fil1" d="M1135 24c92,-10 92,-10 99,-12l0 0 1 -1c-3,-1 -8,-1 -14,-1 -39,0 -134,13 -139,19 1,0 1,0 3,0 5,0 18,-1 50,-5z"/>
   <path class="fil1" d="M1132 17c12,-1 25,-3 38,-5 -19,3 -34,4 -38,5z"/>
   <path class="fil1" d="M1303 1l23 -1c-9,0 -17,1 -23,1z"/>
   <path class="fil1" d="M1627 257c-3,-1 -6,-1 -9,-1 -30,0 -77,39 -75,66 0,11 9,17 21,17 14,0 34,-9 50,-28 11,-13 30,-44 13,-54z"/>
   <path class="fil1" d="M1565 230c-30,0 -87,31 -91,58 -1,11 7,17 20,17 15,0 35,-8 55,-24 15,-12 41,-39 26,-49 -3,-1 -6,-2 -10,-2z"/>
   <path class="fil1" d="M1411 256c-2,9 6,14 19,14 15,0 36,-6 59,-19 15,-9 52,-35 38,-45 -3,-1 -8,-2 -13,-2 -33,0 -99,28 -103,52z"/>
   <path class="fil1" d="M1467 177c-37,0 -103,21 -113,43 -4,9 4,14 20,14 14,0 36,-5 61,-15 16,-7 61,-29 49,-39 -4,-2 -10,-3 -17,-3z"/>
   <path class="fil1" d="M1424 149c-40,0 -111,18 -120,37 -3,8 5,12 22,12 14,0 36,-3 61,-11 1,0 71,-23 60,-34 -4,-3 -13,-4 -23,-4z"/>
   <path class="fil1" d="M1265 151c-5,7 2,12 23,12 14,0 34,-3 59,-8 1,0 77,-17 70,-28 -5,-4 -17,-5 -31,-5 -42,0 -108,12 -121,29z"/>
   <path class="fil1" d="M1019 857c-9,-4 -19,-6 -28,-6 -51,0 -96,55 -87,104 6,33 31,50 60,50 24,0 52,-13 70,-40 20,-29 28,-82 -15,-108z"/>
   <path class="fil1" d="M1004 633c-9,-5 -17,-6 -26,-6 -49,0 -100,53 -96,97 3,27 23,41 48,41 23,0 49,-12 69,-35 23,-27 39,-74 5,-97z"/>
   <path class="fil1" d="M289 1452c10,-32 9,-91 -25,-121 -4,-3 -8,-6 -14,-7 -2,-1 -5,-1 -7,-1 -41,0 -62,89 -31,144 10,18 23,27 36,27 16,0 32,-14 41,-42z"/>
   <path class="fil1" d="M182 1367c6,-19 8,-48 4,-75 -3,-17 -9,-34 -20,-46 -3,-3 -6,-6 -11,-7 -2,0 -3,-1 -5,-1 -18,0 -31,24 -37,54 -7,32 -5,70 9,97 8,15 17,21 26,21 13,0 26,-15 34,-43z"/>
   <path class="fil1" d="M86 1158c-1,0 -2,0 -3,0 -24,0 -42,82 -33,134 2,11 4,20 8,27 4,7 8,10 13,10 9,0 19,-13 26,-37 1,-2 2,-4 2,-7 9,-33 13,-93 -5,-121 -3,-2 -5,-5 -8,-6z"/>
   <path class="fil1" d="M474 1349c6,-15 11,-36 10,-57 -1,-24 -10,-49 -32,-66l-6 -3c-6,-3 -13,-5 -20,-5 -30,0 -57,34 -64,74 -3,19 -1,40 6,59 11,28 30,42 50,42 21,0 42,-15 56,-44z"/>
   <path class="fil1" d="M311 1132c-43,0 -78,82 -56,140 4,9 7,15 12,20 8,10 18,14 28,14 10,0 21,-4 30,-14 8,-7 15,-17 20,-29 15,-33 21,-93 -13,-123l-10 -6c-4,-1 -8,-2 -11,-2z"/>
   <path class="fil1" d="M226 1050c-3,-1 -6,-2 -9,-2 -39,0 -75,98 -51,152 7,15 16,22 27,22 15,0 32,-16 44,-45 14,-30 25,-91 -3,-122l-8 -5z"/>
   <path class="fil1" d="M98 1124c4,10 10,15 16,15 12,0 27,-16 39,-45 14,-33 26,-92 9,-121l-6 -4c-2,-2 -4,-2 -6,-2 -31,0 -69,110 -52,157z"/>
   <path class="fil1" d="M60 1059c1,3 3,5 6,5 7,0 20,-18 32,-48 13,-33 28,-91 21,-116l-5 -5c0,0 -1,0 -1,0 -23,0 -66,132 -53,164z"/>
   <path class="fil1" d="M73 948c12,-32 31,-89 33,-112l-1 -3c-9,3 -66,151 -57,166 5,-3 18,-33 25,-51z"/>
   <path class="fil1" d="M697 1245c18,-32 23,-90 -21,-119 -10,-5 -20,-7 -30,-7 -51,0 -90,66 -73,121 10,32 34,48 60,48 23,0 48,-14 64,-43z"/>
   <path class="fil1" d="M440 1155c7,31 28,47 52,47 21,0 45,-13 60,-41 19,-32 27,-89 -12,-119 -9,-5 -18,-7 -27,-7 -46,0 -86,65 -73,120z"/>
   <path class="fil1" d="M418 955c-5,-3 -12,-5 -18,-5 -41,0 -85,68 -73,126 6,27 23,41 42,41 19,0 41,-14 57,-41 18,-31 30,-89 -3,-118l-5 -3z"/>
   <path class="fil1" d="M320 870c-4,-2 -8,-2 -12,-2 -40,0 -86,82 -71,137 6,18 17,27 30,27 16,0 36,-14 52,-41 19,-31 33,-87 8,-116l-7 -5z"/>
   <path class="fil1" d="M170 930c3,13 10,20 19,20 13,0 31,-15 47,-42 18,-30 37,-85 20,-113l-5 -4c-3,-2 -5,-2 -8,-2 -33,0 -83,91 -73,141z"/>
   <path class="fil1" d="M663 1057c8,31 31,47 57,47 24,0 50,-14 68,-41 19,-30 29,-86 -13,-113 -10,-5 -20,-7 -30,-7 -51,0 -95,62 -82,114z"/>
   <path class="fil1" d="M534 974c4,31 25,47 49,47 22,0 47,-13 65,-39 21,-30 34,-84 -3,-112 -9,-5 -18,-8 -28,-8 -47,0 -92,60 -83,112z"/>
   <path class="fil1" d="M423 898c4,26 21,39 41,39 19,0 43,-12 62,-38 21,-29 38,-82 7,-110 -8,-5 -16,-7 -24,-7 -45,0 -93,65 -86,116z"/>
   <path class="fil1" d="M438 707c-5,-3 -10,-5 -16,-5 -39,0 -93,68 -88,120 3,22 15,33 31,33 17,0 39,-13 58,-37 22,-29 42,-81 19,-108l-4 -3z"/>
   <path class="fil1" d="M270 755c2,13 9,19 19,19 14,0 35,-12 54,-36 22,-28 46,-78 31,-105l-3 -2c-3,-3 -8,-5 -12,-5 -36,0 -96,81 -89,129z"/>
   <path class="fil1" d="M767 884c6,30 27,45 53,45 23,0 50,-13 69,-39 21,-28 34,-80 -4,-106 -10,-4 -20,-7 -29,-7 -51,0 -98,58 -89,107z"/>
   <path class="fil1" d="M736 703c-47,0 -96,55 -92,103 2,29 22,44 46,44 22,0 47,-12 68,-36 23,-28 40,-78 6,-104 -9,-5 -18,-7 -28,-7z"/>
   <path class="fil1" d="M539 733c2,25 17,38 38,38 20,0 44,-12 65,-35 24,-26 46,-75 18,-101 -8,-5 -17,-7 -25,-7 -46,0 -99,59 -96,105z"/>
   <path class="fil1" d="M552 554c-42,0 -100,62 -98,107 0,20 12,31 30,31 17,0 40,-11 62,-33 24,-26 50,-73 29,-98 -7,-5 -14,-7 -23,-7z"/>
   <path class="fil1" d="M391 592c-1,16 8,23 20,23 16,0 37,-10 59,-31 26,-25 55,-70 41,-94 -4,-5 -10,-7 -17,-7 -38,0 -101,68 -103,109z"/>
   <path class="fil1" d="M473 424c-2,-3 -6,-4 -9,-4 -31,0 -108,76 -109,114 -1,8 3,12 10,12 12,0 32,-11 55,-32 25,-24 59,-67 54,-88l-1 -2z"/>
   <path class="fil1" d="M348 486c7,0 26,-12 49,-33 26,-24 63,-64 66,-82l-1 -4c-1,0 -2,-1 -4,-1 -22,0 -114,90 -114,115 0,3 1,5 4,5z"/>
   <path class="fil1" d="M1297 925c9,30 33,45 59,45 26,0 54,-15 69,-45 15,-30 17,-81 -27,-102 -8,-3 -16,-4 -23,-4 -52,0 -92,58 -78,106z"/>
   <path class="fil1" d="M1149 859c6,31 30,46 56,46 25,0 52,-14 70,-41 18,-29 25,-79 -18,-102 -8,-3 -16,-4 -24,-4 -50,0 -94,54 -84,101z"/>
   <path class="fil1" d="M671 584c-1,23 14,34 35,34 20,0 45,-10 67,-30 26,-24 52,-67 27,-90 -7,-5 -16,-8 -25,-8 -45,0 -103,52 -104,94z"/>
   <path class="fil1" d="M700 423c-43,0 -106,55 -108,94 -2,19 10,28 28,28 18,0 41,-9 64,-28 28,-22 58,-64 39,-86 -6,-5 -14,-8 -23,-8z"/>
   <path class="fil1" d="M533 453c-2,15 6,22 20,22 16,0 39,-9 62,-27 28,-21 63,-60 51,-82 -5,-4 -11,-6 -18,-6 -39,0 -109,57 -115,93z"/>
   <path class="fil1" d="M620 302c-33,0 -118,63 -121,97 -1,8 3,12 11,12 13,0 34,-10 59,-27 29,-20 68,-57 63,-76l-1 -2c-3,-2 -6,-4 -11,-4z"/>
   <path class="fil1" d="M552 280c19,-13 72,-49 82,-64l1 -2c-1,0 -1,0 -2,0 -18,0 -132,80 -132,93 0,1 0,1 1,1 7,0 33,-17 50,-28z"/>
   <path class="fil1" d="M1431 799c23,0 50,-15 64,-42 15,-28 18,-76 -21,-94 -6,-2 -13,-3 -19,-3 -49,0 -90,60 -74,104 9,24 28,35 50,35z"/>
   <path class="fil1" d="M1246 699c4,28 25,42 49,42 23,0 49,-13 67,-39 18,-26 26,-72 -10,-92 -7,-3 -14,-4 -21,-4 -46,0 -91,51 -85,93z"/>
   <path class="fil1" d="M1213 550c-47,0 -97,51 -91,93 3,24 22,36 45,36 22,0 48,-12 68,-35 21,-25 35,-70 1,-90 -7,-3 -15,-4 -23,-4z"/>
   <path class="fil1" d="M862 314c-42,0 -110,41 -118,78 -3,17 8,25 27,25 17,0 42,-7 66,-23 27,-18 64,-53 48,-74 -6,-4 -14,-6 -23,-6z"/>
   <path class="fil1" d="M805 213c-2,-3 -7,-5 -14,-5 -35,0 -118,43 -130,74 -4,10 1,14 12,14 13,0 35,-7 61,-20 29,-16 74,-46 71,-63z"/>
   <path class="fil1" d="M1446 473c-6,-2 -12,-3 -18,-3 -41,0 -89,48 -82,89 4,20 21,31 41,31 20,0 44,-11 61,-36 17,-24 28,-64 -2,-81z"/>
   <path class="fil1" d="M1238 505c1,20 17,31 38,31 20,0 44,-10 64,-32 20,-22 37,-61 9,-77 -5,-3 -12,-4 -19,-4 -41,0 -94,43 -92,82z"/>
   <path class="fil1" d="M1089 275c-41,0 -106,33 -116,65 -5,17 7,26 28,26 18,0 41,-6 66,-21 27,-16 63,-48 45,-65 -6,-4 -14,-5 -23,-5z"/>
   <path class="fil1" d="M910 288c-5,14 5,22 24,22 17,0 40,-6 66,-19 29,-14 69,-43 56,-60 -5,-3 -13,-5 -23,-5 -41,0 -112,32 -123,62z"/>
   <path class="fil1" d="M993 179c-40,0 -117,31 -130,59 -5,11 4,17 20,17 16,0 39,-5 64,-16 30,-13 75,-39 67,-55 -4,-4 -11,-5 -21,-5z"/>
   <path class="fil1" d="M1136 253c-4,11 6,18 25,18 16,0 39,-5 64,-17 19,-8 68,-35 53,-50 -5,-3 -13,-4 -22,-4 -41,0 -110,27 -120,53z"/>
   <path class="fil1" d="M1084 209c-4,10 5,15 24,15 15,0 37,-4 63,-13 20,-7 74,-30 63,-45 -5,-3 -14,-5 -25,-5 -42,0 -116,25 -125,48z"/>
   <path class="fil1" d="M1045 167c-4,8 5,12 22,12 15,0 37,-3 61,-10 21,-6 80,-26 74,-39 -5,-4 -14,-6 -27,-6 -43,0 -121,22 -130,43z"/>
   <path class="fil1" d="M1316 124c1,-1 82,-13 79,-23 -6,-4 -21,-6 -40,-6 -45,0 -110,10 -121,23 -4,6 5,11 27,11 14,0 32,-2 55,-5z"/>
   <path class="fil1" d="M1295 95c9,-1 86,-9 86,-16 -4,-5 -24,-8 -49,-8 -46,0 -107,8 -115,18 -4,5 4,8 29,8 12,0 29,0 49,-2z"/>
   <path class="fil1" d="M1248 70c10,0 22,0 37,-1 27,-1 89,-4 92,-10 -3,-6 -31,-8 -63,-8 -45,0 -98,5 -103,13 -2,2 0,6 37,6z"/>
   <path class="fil1" d="M1217 43c2,3 10,5 53,5 5,0 11,0 17,0 89,-1 94,-4 95,-5l0 -1c-7,-6 -45,-9 -82,-9 -41,0 -83,4 -83,10z"/>
   <path class="fil1" d="M1234 26c5,2 16,3 65,4 35,1 58,1 71,1 21,0 23,0 25,-1l0 -1c-11,-6 -59,-10 -101,-10 -26,0 -50,1 -59,6l-1 1z"/>
   <path class="fil1" d="M1263 12l0 1c5,1 18,2 57,4 59,3 80,4 89,4 4,0 5,0 7,-1l1 -1c-10,-6 -69,-11 -111,-11 -21,0 -37,1 -43,4z"/>
   <path class="fil1" d="M1444 14c1,0 1,0 1,0l1 0 0 -1c-15,-6 -81,-11 -119,-11 -14,0 -24,0 -26,2 2,1 2,1 51,4 76,5 89,6 92,6z"/>
   <path class="fil1" d="M1481 12l2 0c-5,-4 -27,-7 -53,-9 5,1 10,1 15,1 -2,0 -4,0 -6,0 -12,-1 -23,-2 -29,-2 0,0 0,0 0,0 -17,-1 -32,-2 -44,-2l-10 0c-3,0 -5,0 -7,0 14,2 28,2 42,3 30,3 60,8 90,9z"/>
   <path class="fil1" d="M2632 1741c-12,23 -62,156 -59,162 2,-3 4,-8 12,-26l27 -68 14 -40c10,-28 9,-29 8,-30l-2 2z"/>
   <path class="fil1" d="M2530 1945c9,0 34,-41 52,-89 5,-14 9,-25 11,-31 2,-8 11,-42 2,-42 -1,0 -3,0 -4,1 -29,24 -74,143 -64,159 0,1 1,2 3,2z"/>
   <path class="fil1" d="M2569 1618c-1,0 -2,1 -3,1 -38,16 -66,131 -47,159 3,4 6,6 10,6 17,0 41,-38 52,-86 8,-34 10,-80 -12,-80z"/>
   <path class="fil1" d="M2688 1360c-1,-9 -3,-12 -4,-12 -2,0 -2,2 -3,3 -14,29 -18,159 -8,164 0,1 0,1 0,1 6,0 14,-46 17,-96 0,-25 0,-47 -2,-60z"/>
   <path class="fil1" d="M2632 1556c12,0 25,-41 29,-91 2,-33 -2,-76 -15,-76 -1,0 -2,1 -4,1 -26,23 -32,147 -15,164 2,2 3,2 5,2z"/>
   <path class="fil1" d="M2676 1320c0,0 0,0 1,0 3,0 6,-11 7,-28 1,-17 0,-40 -3,-65l-1 -8c-3,-27 -10,-63 -18,-63 -1,0 -2,1 -2,2 -9,19 -3,93 6,134 3,16 7,26 10,28z"/>
   <path class="fil1" d="M2633 1357c1,1 3,2 5,2 10,0 18,-28 17,-67 0,-7 0,-15 -1,-22 -3,-39 -14,-76 -27,-76 -1,0 -2,0 -3,1 -14,12 -16,57 -11,97 3,30 11,57 20,65z"/>
   <path class="fil1" d="M2542 1292c0,39 9,80 25,92 3,2 6,4 9,4 17,0 30,-38 27,-86 0,-3 0,-6 -1,-10 -3,-31 -15,-70 -34,-70 -1,0 -2,0 -3,0 -16,8 -23,38 -23,70z"/>
   <path class="fil1" d="M2466 1202c5,3 9,5 13,5 20,0 32,-35 25,-79 -5,-34 -25,-84 -51,-84 0,0 0,0 0,0 -41,11 -23,132 13,158z"/>
   <path class="fil1" d="M2361 1203c7,7 15,10 22,10 22,0 39,-31 34,-75 -3,-35 -22,-85 -55,-88 -48,6 -41,117 -1,153z"/>
   <path class="fil1" d="M2250 1046c-48,5 -55,110 -10,151 10,8 19,12 28,12 25,0 45,-28 44,-70 -1,-35 -20,-87 -57,-93l-5 0z"/>
   <path class="fil1" d="M1547 190c-2,5 3,8 13,8 11,0 29,-4 53,-14 1,-1 52,-23 46,-28 -2,-1 -5,-1 -9,-1 -28,0 -97,18 -103,35z"/>
   <path class="fil1" d="M1523 174c12,0 30,-3 57,-10 0,0 56,-15 57,-21l-1 -1c-3,-1 -9,-2 -16,-2 -34,0 -101,12 -111,26 -3,5 1,8 14,8z"/>
   <path class="fil1" d="M1475 143c-2,4 3,7 20,7 12,0 30,-2 55,-6 3,0 65,-10 68,-15l-1 -1c-5,-2 -17,-3 -32,-3 -40,0 -103,7 -110,18z"/>
   <path class="fil1" d="M1448 119c0,1 -7,8 30,8 12,0 27,-1 48,-2 6,-1 66,-6 75,-9l0 -2c-6,-4 -33,-6 -63,-6 -38,0 -81,4 -90,11z"/>
   <path class="fil1" d="M1427 99c1,4 22,7 64,7 5,0 10,0 15,0 81,-1 83,-4 84,-5 -9,-6 -60,-11 -103,-11 -30,0 -57,3 -60,9z"/>
   <path class="fil1" d="M1415 79c4,4 26,6 79,9 48,2 69,3 79,3 8,0 9,-1 10,-1 -7,-6 -91,-17 -138,-17 -17,0 -30,2 -30,6z"/>
   <path class="fil1" d="M1411 60c3,4 29,8 77,12 65,6 82,8 89,8 2,0 3,-1 4,-1 -6,-6 -104,-22 -148,-22 -12,0 -20,1 -22,3z"/>
   <path class="fil1" d="M1488 59c79,10 90,12 94,12 0,0 1,0 1,0 -1,-2 -109,-29 -151,-29 -9,0 -15,1 -16,4 5,3 27,7 72,13z"/>
   <path class="fil1" d="M1427 34c4,3 25,7 69,14 92,16 92,16 94,16l0 -1c-15,-10 -116,-31 -151,-31 -6,0 -10,0 -12,2z"/>
   <path class="fil1" d="M1447 25l0 0c4,3 15,5 62,15 92,19 92,19 92,19l0 -1c-10,-8 -111,-34 -147,-34 -2,0 -5,0 -7,1z"/>
   <path class="fil1" d="M1473 20c2,1 4,2 55,14 27,7 47,12 56,14 23,6 29,8 32,8l0 -1c-20,-13 -113,-36 -138,-36 -2,0 -4,0 -5,1z"/>
   <path class="fil1" d="M1505 18c3,1 3,1 48,13 24,7 41,12 57,17 19,5 22,6 25,7l0 -1c-13,-12 -102,-37 -125,-37 -2,0 -4,0 -5,1z"/>
   <path class="fil1" d="M1544 19c2,1 2,1 39,13 21,6 37,12 50,16 18,6 21,7 24,8l1 -1c-7,-10 -89,-37 -110,-37 -2,0 -3,1 -4,1z"/>
   <path class="fil1" d="M2131 1032l-6 -1c-52,0 -70,95 -27,143 37,41 88,15 90,-46 2,-34 -15,-87 -57,-96z"/>
   <path class="fil1" d="M2527 1029c-1,0 -1,0 -2,0 -31,15 -7,136 23,158 22,16 35,-26 24,-80 -6,-32 -25,-78 -45,-78z"/>
   <path class="fil1" d="M1992 1007c-3,-1 -6,-1 -9,-1 -57,0 -78,84 -43,132 37,51 101,32 109,-32 4,-33 -11,-87 -57,-99z"/>
   <path class="fil1" d="M2619 1077c-9,-37 -25,-74 -38,-74 -1,0 -2,1 -3,1 -23,21 11,148 33,159 16,7 20,-36 8,-86z"/>
   <path class="fil1" d="M1895 1073c7,-33 -4,-86 -52,-102 -5,-1 -9,-1 -13,-1 -56,0 -84,79 -52,128 34,51 104,36 117,-25z"/>
   <path class="fil1" d="M2650 1128c10,4 7,-41 -6,-90 -10,-36 -23,-69 -31,-69 -1,0 -2,0 -3,1 -10,25 25,151 40,158z"/>
   <path class="fil1" d="M1737 1031c11,-32 3,-85 -45,-103 -5,-1 -11,-2 -16,-2 -56,0 -89,74 -60,123 30,52 103,41 121,-18z"/>
   <path class="fil1" d="M2622 926l-1 2c1,22 36,150 44,154 2,-6 -8,-54 -19,-92 -2,-6 -18,-62 -24,-64z"/>
   <path class="fil1" d="M2339 1012c30,21 50,-13 38,-66 -7,-32 -31,-82 -60,-84l-4 0c-35,8 -16,121 26,150z"/>
   <path class="fil1" d="M2223 858l-4 0c-43,5 -33,116 12,149 33,23 60,-8 52,-61 -5,-32 -27,-82 -60,-88z"/>
   <path class="fil1" d="M2434 1010c24,13 35,-24 21,-73 -9,-32 -35,-80 -59,-80l-3 0c-31,13 2,133 41,153z"/>
   <path class="fil1" d="M2110 845c-48,1 -53,100 -7,142 36,32 74,5 71,-50 -2,-33 -22,-83 -59,-91l-5 -1z"/>
   <path class="fil1" d="M2515 919c-11,-33 -36,-76 -54,-76 -1,0 -1,0 -2,0 -27,14 19,139 48,153 20,10 25,-29 8,-77z"/>
   <path class="fil1" d="M1993 824l-5 -1c-1,0 -2,0 -3,0 -48,0 -65,86 -25,132 36,42 88,20 90,-38 1,-32 -16,-82 -57,-93z"/>
   <path class="fil1" d="M2508 821c-1,0 -2,0 -3,0 -18,19 33,142 56,152 16,8 14,-33 -4,-81 -13,-31 -36,-71 -49,-71z"/>
   <path class="fil1" d="M1815 919c34,43 90,26 98,-31 5,-31 -8,-81 -50,-95l-6 -2c-2,0 -3,0 -5,0 -48,0 -74,82 -37,128z"/>
   <path class="fil1" d="M2595 941c12,5 4,-38 -16,-84 -14,-33 -34,-66 -43,-66 -1,0 -2,0 -2,1 -8,22 46,143 61,149z"/>
   <path class="fil1" d="M1773 851c8,-30 1,-80 -41,-96 -5,-1 -10,-2 -14,-2 -50,0 -78,71 -53,117 28,50 93,38 108,-19z"/>
   <path class="fil1" d="M2544 753l-1 2c2,19 56,145 66,146 4,-6 -12,-50 -28,-87 -14,-29 -31,-61 -37,-61z"/>
   <path class="fil1" d="M2315 763c-11,-32 -40,-77 -64,-80l-6 2c-24,14 11,128 55,145 23,9 31,-24 15,-67z"/>
   <path class="fil1" d="M2172 680l-6 1c-30,12 -10,115 37,142 29,17 45,-14 32,-60 -8,-31 -34,-78 -63,-83z"/>
   <path class="fil1" d="M2317 679l-3 1c-25,12 27,133 64,145 21,7 23,-27 4,-70 -14,-32 -45,-76 -65,-76z"/>
   <path class="fil1" d="M2091 807c33,24 59,-3 51,-52 -5,-30 -28,-78 -60,-85l-7 0c-35,7 -30,101 16,137z"/>
   <path class="fil1" d="M2370 667c0,0 0,0 -1,0l-1 1c-18,15 44,137 73,145 17,5 14,-31 -8,-74 -16,-30 -46,-72 -63,-72z"/>
   <path class="fil1" d="M1976 651c0,0 -1,0 -1,0 -39,0 -52,86 -8,129 31,30 72,13 69,-42 -2,-29 -21,-77 -55,-87l-5 0z"/>
   <path class="fil1" d="M2410 649c-1,0 -2,0 -2,0 -9,11 22,68 28,80 17,30 39,61 51,63 14,3 5,-34 -19,-76 -19,-33 -46,-67 -58,-67z"/>
   <path class="fil1" d="M1841 749c29,31 74,18 78,-36 2,-28 -11,-75 -47,-87l-9 -1c-40,1 -62,81 -22,124z"/>
   <path class="fil1" d="M2434 624c-1,0 -2,0 -2,1 -6,17 68,138 84,139 10,1 -5,-38 -29,-77 -19,-32 -45,-63 -53,-63z"/>
   <path class="fil1" d="M1763 594l-5 -1c-2,0 -4,0 -6,0 -38,0 -72,67 -41,113 26,40 78,26 88,-25 6,-27 -1,-74 -36,-87z"/>
   <path class="fil1" d="M2441 593c-1,0 -1,0 -1,1 2,18 76,133 87,135 5,-4 -17,-46 -38,-79 -21,-32 -42,-57 -48,-57z"/>
   <path class="fil1" d="M2431 555l0 2c6,12 83,128 88,130 -1,-6 -24,-45 -47,-80 -14,-20 -36,-50 -41,-52z"/>
   <path class="fil1" d="M2165 518l-4 2c-16,13 37,127 74,134 18,4 17,-25 -3,-63 -17,-33 -49,-71 -67,-73z"/>
   <path class="fil1" d="M2104 516l-5 1c-22,11 15,115 56,133 21,9 31,-14 12,-59 -12,-29 -41,-71 -63,-75z"/>
   <path class="fil1" d="M2215 515c-19,12 56,132 84,135 16,3 10,-28 -13,-65 -20,-33 -54,-70 -70,-70l-1 0z"/>
   <path class="fil1" d="M2067 639c23,11 39,-11 25,-54 -9,-28 -34,-71 -58,-77l-6 0c-27,8 -5,110 39,131z"/>
   <path class="fil1" d="M2258 506c0,0 0,0 -1,0l-1 1c-13,14 71,132 94,133 12,0 5,-28 -23,-68 -22,-31 -56,-66 -69,-66z"/>
   <path class="fil1" d="M1955 493l-7 0c-33,5 -28,96 16,125 26,17 50,-1 43,-46 -5,-27 -25,-70 -52,-79z"/>
   <path class="fil1" d="M2287 492c-8,11 79,126 99,131 12,2 1,-29 -30,-69 -24,-30 -56,-62 -67,-62 -1,0 -1,0 -2,0z"/>
   <path class="fil1" d="M1856 590c25,22 57,8 56,-38 0,-26 -14,-69 -42,-78l-7 -1c-34,3 -45,82 -7,117z"/>
   <path class="fil1" d="M2371 530c-26,-31 -56,-58 -64,-58 0,0 -1,0 -1,1 -3,14 89,124 104,126 9,2 -7,-31 -39,-69z"/>
   <path class="fil1" d="M1785 449l-4 -1c-1,0 -2,0 -4,0 -32,0 -59,68 -29,107 21,28 61,17 68,-29 4,-25 -4,-66 -31,-77z"/>
   <path class="fil1" d="M2313 448c0,0 0,0 -1,0l0 1c2,10 98,125 108,121 2,-8 -24,-43 -48,-70 -25,-28 -53,-52 -59,-52z"/>
   <path class="fil1" d="M1700 421c-3,-1 -5,-2 -8,-2 -35,1 -68,59 -50,96 16,32 62,26 77,-20 8,-23 7,-63 -19,-74z"/>
   <path class="fil1" d="M2323 419c8,8 15,16 22,23 -7,-8 -11,-11 -22,-23z"/>
   <path class="fil1" d="M2307 419l-2 0 1 1c6,12 96,110 106,115l1 0c-3,-9 -29,-42 -54,-69 -23,-24 -45,-44 -52,-47z"/>
   <path class="fil1" d="M2295 393c-9,-8 -10,-8 -11,-8l2 2c0,1 99,105 103,108 -2,-3 -10,-14 -29,-36 -21,-23 -42,-45 -65,-66z"/>
   <path class="fil1" d="M2060 370l-2 0c-14,8 63,116 88,122 14,3 10,-21 -17,-57 -20,-28 -55,-63 -69,-65z"/>
   <path class="fil1" d="M2018 368l-3 1c-12,11 42,112 73,120 15,5 16,-16 -7,-54 -17,-29 -48,-63 -63,-67z"/>
   <path class="fil1" d="M2096 367l-2 1c-6,6 75,117 101,121 13,2 4,-23 -26,-59 -24,-28 -61,-62 -73,-63z"/>
   <path class="fil1" d="M2026 430c-13,-28 -40,-63 -57,-67l-3 0c-18,9 19,107 55,118 16,6 22,-14 5,-51z"/>
   <path class="fil1" d="M2123 362c-4,7 89,117 112,119 10,0 -3,-25 -36,-60 -29,-30 -66,-60 -75,-60l-1 1z"/>
   <path class="fil1" d="M1942 466c20,10 33,-7 21,-45 -7,-24 -29,-62 -48,-68l-5 0c-21,6 -3,94 32,113z"/>
   <path class="fil1" d="M2145 352c-5,9 105,116 119,116 8,-1 -10,-28 -44,-60 -29,-29 -66,-56 -75,-56 0,0 0,0 0,0z"/>
   <path class="fil1" d="M1894 406c-3,-23 -18,-60 -38,-67l-4 0c-24,4 -25,81 7,105 19,16 40,1 35,-38z"/>
   <path class="fil1" d="M2232 390c-30,-27 -66,-52 -74,-52 0,0 0,1 -1,1 0,7 77,76 78,77 42,37 46,34 48,33 0,-7 -22,-33 -51,-59z"/>
   <path class="fil1" d="M2233 368c-28,-22 -62,-46 -70,-46 -1,0 -1,0 -1,0 2,7 116,107 126,105 2,-5 -24,-33 -55,-59z"/>
   <path class="fil1" d="M1775 418c18,20 45,8 47,-31 2,-22 -6,-57 -24,-65l-3 -1c0,0 -1,0 -1,0 -25,0 -45,68 -19,97z"/>
   <path class="fil1" d="M1739 302c-2,0 -3,0 -5,0 -28,0 -57,57 -40,86 13,23 46,15 57,-24 6,-20 6,-53 -12,-62z"/>
   <path class="fil1" d="M2222 343c-29,-24 -57,-41 -64,-42l-1 1c1,1 116,100 126,98 -2,-6 -28,-32 -61,-57z"/>
   <path class="fil1" d="M1682 280c-2,0 -4,0 -7,0 -27,0 -66,46 -59,74 7,27 44,23 65,-15 11,-18 18,-50 1,-59z"/>
   <path class="fil1" d="M2235 340c-25,-19 -50,-38 -76,-55 -11,-6 -14,-7 -15,-7 -1,0 -1,0 -1,0l0 1c6,6 115,88 121,90l0 0c-2,-3 -9,-11 -29,-29z"/>
   <path class="fil1" d="M2123 255l-1 1 1 1c1,0 110,80 115,81 -4,-4 -33,-30 -65,-53 -25,-17 -45,-29 -50,-30z"/>
   <path class="fil1" d="M1937 241l-1 1c0,8 89,106 105,105 7,0 -5,-21 -34,-50 -26,-26 -62,-54 -70,-56z"/>
   <path class="fil1" d="M1914 241c-3,6 68,104 88,104 8,1 1,-19 -24,-48 -22,-24 -54,-54 -63,-56l-1 0z"/>
   <path class="fil1" d="M1955 241c3,9 109,109 120,104 1,-6 -17,-27 -44,-51 -29,-26 -69,-53 -75,-54l-1 1z"/>
   <path class="fil1" d="M1889 237l0 0c-5,3 15,41 32,68 14,20 28,34 36,35 10,2 7,-17 -13,-46 -17,-25 -45,-54 -55,-57z"/>
   <path class="fil1" d="M1970 237c1,2 122,109 130,102 0,-7 -21,-28 -50,-50 -34,-27 -74,-52 -80,-52l0 0z"/>
   <path class="fil1" d="M1861 232l-1 0c-10,2 17,87 45,98 12,6 15,-11 0,-42 -11,-22 -34,-52 -44,-56z"/>
   <path class="fil1" d="M2118 330l1 -1c-2,-7 -26,-27 -56,-49 -31,-22 -73,-47 -82,-48 0,0 118,94 137,98z"/>
   <path class="fil1" d="M2093 230c34,26 72,47 105,73 -15,-12 -34,-27 -49,-38 -4,-3 -11,-8 -16,-11 -17,-12 -37,-25 -41,-25l1 1z"/>
   <path class="fil1" d="M1831 225l-3 0c-11,6 -2,81 22,93 13,5 21,-10 12,-39 -6,-21 -22,-50 -31,-54z"/>
   <path class="fil1" d="M2070 269c-35,-22 -75,-44 -82,-44 0,1 129,94 143,93 -1,-5 -28,-27 -61,-49z"/>
   <path class="fil1" d="M2071 256c-35,-20 -75,-40 -81,-40 1,1 137,89 145,87 -3,-6 -29,-26 -64,-47z"/>
   <path class="fil1" d="M1800 216l-2 0c-12,0 -27,61 -6,83 11,11 28,2 26,-31 -1,-18 -8,-47 -18,-52z"/>
   <path class="fil1" d="M2064 240c-32,-18 -70,-34 -76,-34l0 0c0,1 130,77 142,79l0 0c-4,-7 -31,-26 -66,-45z"/>
   <path class="fil1" d="M1770 206c-1,0 -1,0 -2,0 -16,0 -43,51 -31,72 9,15 30,8 38,-24 3,-17 3,-43 -5,-48z"/>
   <path class="fil1" d="M1740 195c-1,-1 -2,-1 -2,-1 -16,0 -58,39 -53,62 3,16 28,13 46,-18 8,-13 17,-38 9,-43z"/>
   <path class="fil1" d="M2089 243c-28,-15 -57,-30 -87,-43 -11,-4 -17,-6 -21,-7l-1 1c1,1 131,71 138,70 -1,-1 -6,-6 -29,-21z"/>
   <path class="fil1" d="M1708 182c-20,0 -72,31 -72,52 0,15 26,14 54,-13 8,-8 29,-33 21,-39 -1,0 -2,0 -3,0z"/>
   <path class="fil1" d="M1971 182c0,0 -1,0 -1,0 1,0 121,60 129,62l1 -1c-4,-5 -32,-22 -66,-38 -24,-11 -55,-23 -63,-23z"/>
   <path class="fil1" d="M1679 169c-23,0 -83,24 -89,43 -4,13 22,14 60,-9 1,0 42,-27 34,-34 -1,0 -3,0 -5,0z"/>
   <path class="fil1" d="M1955 168l-1 0 0 0c1,1 115,52 119,52 -3,-4 -32,-21 -63,-34 -26,-12 -50,-18 -55,-18z"/>
   <path class="fil1" d="M1936 154c-1,0 -1,0 -1,0l0 0 0 1 105 40c-5,-3 -32,-19 -60,-29 -20,-8 -38,-12 -44,-12z"/>
   <path class="fil1" d="M1915 139c-1,0 -2,0 -3,1l1 1 89 30c-4,-2 -30,-16 -55,-25 -13,-4 -25,-7 -32,-7z"/>
   <path class="fil1" d="M1861 208c5,5 12,11 15,11 2,-4 -11,-20 -31,-39 -20,-20 -48,-42 -50,-44 22,23 43,48 66,72z"/>
   <path class="fil1" d="M1843 176c40,37 50,46 54,45 0,-3 -14,-18 -40,-40 -27,-22 -60,-44 -61,-45 36,30 36,30 47,40z"/>
   <path class="fil1" d="M1853 177c58,45 58,45 62,45 -1,-4 -19,-20 -48,-41 -31,-22 -66,-43 -70,-45 40,28 40,28 56,41z"/>
   <path class="fil1" d="M1862 177c66,44 66,44 69,44 -2,-5 -24,-21 -56,-41 -34,-21 -73,-42 -78,-44 44,27 44,27 65,41z"/>
   <path class="fil1" d="M1869 176c72,43 72,43 74,42 -4,-5 -27,-21 -61,-40 -37,-20 -77,-39 -84,-42 46,24 46,24 71,40z"/>
   <path class="fil1" d="M1798 147c3,10 6,21 10,32l1 3c0,1 2,5 4,10 4,9 9,16 12,17 5,1 5,-10 -7,-34 -9,-17 -25,-40 -25,-40 1,4 3,8 5,12z"/>
   <path class="fil1" d="M1805 151c9,13 16,26 25,40l4 6c8,11 14,17 17,18 5,0 0,-13 -19,-37 -15,-19 -38,-42 -38,-43 3,6 7,11 11,16z"/>
   <path class="fil1" d="M1867 170c84,44 84,44 85,44 -5,-5 -31,-21 -66,-39 -39,-19 -80,-36 -88,-40 47,23 47,23 69,35z"/>
   <path class="fil1" d="M1957 208c-6,-5 -33,-21 -68,-37 -40,-17 -82,-33 -91,-36 47,20 47,20 73,32 85,41 85,41 86,41z"/>
   <path class="fil1" d="M1791 170c0,6 0,10 0,12 1,7 3,16 7,18 6,4 10,-6 5,-29 -3,-13 -11,-36 -11,-36l-1 35z"/>
   <path class="fil1" d="M1798 135c49,18 49,18 74,29 87,37 87,37 87,36 -7,-5 -34,-18 -70,-33 -40,-16 -82,-29 -91,-32z"/>
   <path class="fil1" d="M1772 191c4,5 13,-1 16,-25 1,-9 2,-31 3,-32 -1,1 -29,45 -19,57z"/>
   <path class="fil1" d="M1798 134c50,17 50,17 74,26 18,7 36,14 46,18 25,10 35,14 39,15 -1,-4 -33,-18 -70,-31 -39,-14 -81,-25 -89,-28z"/>
   <path class="fil1" d="M1789 134c0,0 -46,32 -43,46 2,6 13,5 28,-19 5,-9 10,-18 15,-27z"/>
   <path class="fil1" d="M1826 140c-18,-4 -28,-6 -28,-6 49,14 49,14 72,21 24,8 47,17 70,25 10,3 11,2 11,2 -1,-1 -8,-5 -28,-13 -32,-10 -64,-20 -97,-29z"/>
   <path class="fil1" d="M1723 170c0,4 8,7 36,-15 21,-16 21,-16 29,-22 -7,2 -64,24 -65,37z"/>
   <path class="fil1" d="M1798 133c47,12 47,12 69,18 75,21 75,21 76,21 -5,-3 -32,-13 -67,-22 -35,-9 -74,-16 -78,-17z"/>
   <path class="fil1" d="M1746 149c25,-11 25,-11 41,-16 -16,2 -81,15 -86,26 0,0 -5,11 45,-10z"/>
   <path class="fil1" d="M1797 133c46,8 46,8 64,12 68,16 68,16 68,16 -4,-3 -27,-11 -61,-18 -32,-6 -67,-10 -71,-10z"/>
   <path class="fil1" d="M1680 149c4,5 33,-2 53,-6 31,-7 37,-8 54,-10 -1,0 -2,0 -2,0 -30,0 -105,7 -105,16z"/>
   <path class="fil1" d="M1797 133c41,4 41,4 57,7 59,10 59,10 60,9 -3,-2 -25,-9 -56,-13 -28,-3 -60,-3 -61,-3z"/>
   <path class="fil1" d="M1661 138c3,3 27,1 61,-2 35,-3 45,-4 64,-4 -14,-1 -34,-2 -55,-2 -34,0 -68,2 -70,8z"/>
   <path class="fil1" d="M1840 130c-21,0 -44,2 -44,2 38,1 38,1 44,2 11,1 23,2 31,3 17,2 21,2 24,2l0 -1c-3,-3 -22,-8 -48,-8 -3,0 -4,0 -7,0z"/>
   <path class="fil1" d="M1892 124c-2,0 -3,0 -4,1l0 2 72 21c-2,-1 -29,-15 -49,-21 -9,-2 -15,-3 -19,-3z"/>
   <path class="fil1" d="M1646 126l-1 1c6,2 20,2 67,2 40,0 54,1 73,3 -24,-4 -76,-9 -110,-9 -13,0 -24,0 -29,3z"/>
   <path class="fil1" d="M1834 123c-16,2 -39,9 -39,9 38,-3 38,-3 41,-3 39,-1 39,-1 39,-2 -2,-2 -11,-5 -25,-5 -5,0 -10,1 -16,1z"/>
   <path class="fil1" d="M1784 131c-39,-9 -108,-18 -138,-18 -8,0 -13,1 -14,2 4,2 8,3 72,7 43,4 60,6 80,9z"/>
   <path class="fil1" d="M1841 113c-6,0 -13,1 -20,4 -10,4 -27,14 -27,14 6,-1 12,-3 18,-5 12,-3 24,-4 36,-7l5 -2c0,-2 -4,-4 -12,-4z"/>
   <path class="fil1" d="M1862 109c-1,0 -7,2 -1,5 6,3 51,13 54,12 -1,0 -30,-15 -44,-17 -2,0 -4,-1 -5,-1 -2,0 -3,1 -4,1z"/>
   <path class="fil1" d="M1822 104c-5,0 -10,2 -15,7 -4,4 -14,20 -14,20l8 -6c7,-4 15,-7 21,-11l4 -2 4 -5c0,-1 -3,-3 -8,-3z"/>
   <path class="fil1" d="M1784 131c-48,-13 -127,-28 -153,-28 -1,0 -1,0 -1,0 -4,0 -7,0 -8,1 3,2 3,2 75,12 47,6 67,11 87,15z"/>
   <path class="fil1" d="M1798 94c-3,0 -6,3 -6,12 0,8 0,16 0,24l0 0 4 -7c3,-4 6,-8 8,-13l2 -4 -1 -9c0,0 -3,-3 -7,-3z"/>
   <path class="fil1" d="M1617 94l0 1c4,1 4,1 76,15 48,9 71,15 91,20 -52,-16 -140,-37 -164,-37 -1,0 -2,1 -3,1z"/>
   <path class="fil1" d="M1833 102c7,3 34,5 35,4 -1,-1 -1,-1 -6,-3l-13 -6c-8,-3 -15,-5 -18,-5 -1,0 -1,0 -2,0l0 0c-3,1 -4,6 4,10z"/>
   <path class="fil1" d="M1774 86c-5,0 0,9 3,15 9,16 9,16 14,29 0,0 0,-22 -3,-30 -2,-9 -9,-13 -12,-14 0,0 -1,0 -2,0z"/>
   <path class="fil1" d="M1691 105c49,11 73,19 92,25 -56,-21 -145,-45 -165,-45 -1,0 -2,0 -3,1 3,1 3,1 76,19z"/>
   <path class="fil1" d="M1749 79l0 0c-4,0 3,7 13,18 16,17 19,21 27,32 0,0 -8,-21 -19,-35 -6,-8 -17,-15 -21,-15z"/>
   <path class="fil1" d="M1617 79c2,0 2,0 74,21 49,14 74,23 93,29 -57,-23 -147,-51 -165,-51 -1,0 -1,1 -2,1z"/>
   <path class="fil1" d="M1803 90c9,3 18,0 18,0 3,-2 0,-3 -8,-6l-18 -7c-4,-1 -7,-2 -8,-2 -1,0 -1,0 0,1 0,0 7,11 16,14z"/>
   <path class="fil1" d="M1623 73c1,1 1,1 71,23 47,16 71,26 90,33 -56,-26 -143,-56 -160,-56 0,0 -1,0 -1,0z"/>
   <path class="fil1" d="M1723 73c1,2 1,2 25,21 22,18 30,25 40,35 -16,-24 -54,-56 -63,-56 -1,0 -2,0 -2,0z"/>
   <path class="fil1" d="M1632 68c1,1 1,1 66,26 45,17 68,27 86,35 -54,-28 -138,-61 -151,-61 -1,0 -1,0 -1,0z"/>
   <path class="fil1" d="M1699 68c1,2 1,2 36,24 28,18 40,27 52,37 -26,-27 -76,-61 -87,-61 0,0 0,0 -1,0z"/>
   <path class="fil1" d="M1645 66c1,1 1,1 60,26 42,18 64,29 80,37 -37,-22 -111,-58 -139,-63l-1 0z"/>
   <path class="fil1" d="M1678 66c2,1 2,1 45,25 34,18 49,29 63,38 -27,-22 -86,-60 -107,-63l-1 0z"/>
   <path class="fil1" d="M1661 65c0,0 -1,0 -1,0 1,1 1,1 53,26 38,18 57,29 73,38 -44,-29 -112,-64 -125,-64 0,0 0,0 0,0z"/>
   <path class="fil1" d="M1772 80l6 0c2,-1 5,-3 0,-7 -4,-3 -13,-6 -21,-9l-11 -3c-6,-2 -6,-2 -7,-2l-1 0c1,1 1,1 5,3 25,17 25,17 29,18z"/>
   <path class="fil1" d="M1722 62c13,6 16,8 20,9l3 0c1,-2 -2,-8 -14,-13 -13,-6 -40,-13 -44,-13 1,0 1,0 12,5 9,5 16,8 23,12z"/>
   <path class="fil1" d="M1688 54c15,7 19,9 23,10l3 0c0,-3 -11,-11 -26,-17 -19,-8 -47,-14 -52,-14l0 0c0,0 0,0 20,8 14,6 25,11 32,13z"/>
   <path class="fil1" d="M1627 30c0,0 0,0 0,0l3 0 -3 0z"/>
   <path class="fil1" d="M1661 51c14,6 18,7 22,8l0 0 1 -1c-7,-11 -70,-32 -96,-34l0 0c1,1 1,1 29,11 18,6 30,11 44,16z"/>
   <path class="fil2" d="M2078 1387l226 -247c314,906 -574,1535 -574,1535 1599,-330 1180,-1815 1180,-1815l0 0 313 -49 -971 -546 -174 1122z"/>
   <path class="fil3" d="M936 886c0,0 1,0 1,-2 0,0 0,0 1,0 1,-2 1,-2 4,-2 3,0 4,0 5,-2 1,0 1,-1 1,-1 0,0 0,0 0,0 -1,1 -1,1 -2,1 -1,0 -1,0 -2,-1l0 0c0,-1 0,-1 0,-1 -1,0 -1,1 -1,1 -1,0 -1,1 -2,1 -1,0 -1,1 -3,1 -1,1 -3,2 -5,3 0,0 0,0 -1,0 1,0 2,1 2,1 1,1 1,1 2,1z"/>
   <path class="fil3" d="M1412 890c1,0 2,0 3,-1 -1,0 -1,0 -2,0 0,0 -1,0 -2,0 0,1 0,1 -1,1 1,0 1,0 1,0 0,0 0,0 1,0z"/>
   <polygon class="fil4" points="948,879 948,879 948,879 948,879 "/>
   <path class="fil3" d="M629 1655c0,-2 0,-2 -1,-4l0 0c-1,-2 -1,-2 -2,-3 0,-1 0,-1 -1,-2l0 0c-1,-2 -1,-2 -1,-3 0,0 -1,0 -1,0 0,0 0,1 0,1 0,2 0,2 -1,2 0,1 0,1 0,1 -1,2 -2,3 -3,4 0,0 -1,0 -1,1 -1,1 -2,3 -2,4 1,1 1,2 2,2 1,2 2,4 2,5 0,1 0,1 0,2 0,0 0,1 1,2 0,1 1,1 1,1 1,0 1,0 2,0 0,0 0,0 1,0 2,0 3,-2 5,-5 1,-2 0,-5 0,-7 0,0 -1,-1 -1,-1z"/>
   <path class="fil4" d="M2126 2075c0,-4 0,-10 0,-14 0,-2 -1,-4 -1,-6 -1,-1 -1,-2 -1,-3 0,-1 0,-1 0,-2 0,0 1,0 1,-1 0,-2 -2,-4 -4,-6 -1,-1 -1,-2 -2,-2 -1,-1 -1,-1 -1,-1 0,-2 0,-6 -1,-7 0,0 0,-1 0,-1 0,-2 0,-4 -2,-4 -1,0 -2,1 -2,2 -1,1 -1,1 -1,1 -1,1 -1,1 -2,1 -1,1 -2,1 -2,5 0,2 0,3 0,4 0,2 1,2 1,4 0,1 0,1 -1,1 0,1 0,1 0,3 -1,2 -2,4 -2,5 0,0 -1,-1 -2,-1 0,0 -1,1 -1,1l-1 0c0,0 0,1 0,1 -2,-5 -3,-6 -4,-6 0,0 -1,0 -1,1 -1,2 0,3 1,4 0,1 0,1 0,2 0,1 0,1 0,2 0,0 0,0 -1,-1 0,-1 -1,-2 -1,-2 -1,0 -2,1 -2,1 -2,3 -1,5 -1,7 0,1 1,2 1,3 0,0 0,1 0,1 0,0 -1,0 -2,1 -1,0 -1,1 -1,1 -1,0 -2,1 -2,2 0,1 0,1 0,2 0,0 1,0 1,1 0,0 1,1 2,1 0,0 0,1 0,1 0,0 0,0 0,0 -1,0 -2,0 -2,1 -1,1 -1,2 -2,3 0,-1 0,-2 0,-2 -1,-1 -1,-2 -2,-2l0 0c-1,0 -3,1 -4,4 -1,1 -1,2 -1,3 -1,1 -1,2 -1,3 0,0 0,1 0,1 -1,0 -1,-1 -1,-1 -1,0 -1,-1 -2,-1 -1,0 -2,1 -2,2 0,1 -1,1 -2,2 0,0 -1,1 -1,1 0,0 -1,0 -1,1 -2,1 -3,2 -3,3 0,1 0,1 0,1 0,1 1,1 1,2l-4 -1c-1,0 -2,0 -2,0 0,0 -1,0 -1,0 -1,0 -1,0 -2,0 -1,0 -2,0 -3,2 -1,2 -1,2 -2,1 0,0 -1,0 -1,0 0,0 0,-1 0,-1 -1,0 -1,1 -2,1l0 0c-1,1 -1,1 -2,1 0,1 0,1 -1,1 -1,0 -1,0 -1,0 -1,0 -1,1 -2,0 0,-1 0,-1 0,-2 -1,-2 -2,-3 -4,-3 0,0 0,0 -1,0 0,0 -1,0 -2,0 0,0 -1,0 -1,1 -1,0 -1,1 0,2 0,1 1,2 2,3 0,0 1,0 1,1 1,0 1,0 1,1 1,0 1,0 1,2 0,1 0,2 -1,2 0,1 -1,2 -1,4 -1,3 -2,4 -3,6 0,0 0,0 0,1 -1,0 -1,0 -1,1 -1,0 -2,1 -2,3 0,3 -1,5 -1,5l0 1 1 6c-1,1 -2,5 0,7 0,1 1,1 1,2 2,1 3,3 3,3 0,1 0,1 -1,1 0,1 -1,2 -1,4 1,1 1,2 2,2 0,1 1,1 1,2 0,1 0,1 0,1 0,1 0,2 0,3 -1,1 -1,3 -1,5 0,1 1,3 1,3 -1,1 -3,4 -4,6 -1,1 -2,3 -3,5 0,0 0,1 -1,1 -1,2 -2,6 -3,7 -1,0 -4,1 -4,3 0,2 0,5 -1,6 -1,0 -1,1 -1,1 -2,1 -3,3 -3,5 1,2 1,5 2,7 0,0 0,1 0,1 0,0 0,1 0,2 0,2 1,5 2,6 0,1 1,2 1,3 0,1 0,3 1,4 0,1 0,1 1,2 0,0 0,1 1,1 -1,0 -1,0 -1,0 -1,1 -2,2 -2,4 0,2 0,4 0,5 0,1 0,2 0,3 0,0 0,1 0,1 0,1 0,3 1,4 0,1 0,1 1,1 1,0 1,0 1,1 0,1 0,2 0,2 0,1 0,1 1,2 0,0 0,0 0,1 0,1 0,3 2,4 1,0 2,1 3,2 0,0 0,0 1,0 1,1 3,1 4,1 0,0 1,0 1,0 1,2 1,3 3,4 2,1 4,2 6,2 2,0 4,0 5,-2 2,-2 3,-3 4,-4 1,0 2,0 3,0 1,0 2,0 3,0l1 -1c1,0 5,-1 7,-4 0,-1 1,-1 2,-1 1,-1 1,-1 2,-3 0,-2 0,-3 0,-3 0,-2 1,-3 2,-5 0,0 1,-1 1,-1 1,-1 2,-3 3,-5 0,-2 0,-3 0,-5 -1,-1 -1,-2 0,-3 0,-1 1,-2 1,-2 1,-1 2,-2 2,-4 0,-1 0,-2 -1,-2 0,-1 0,-2 1,-4 2,-4 7,-15 8,-20 0,-1 0,-3 0,-4 1,-2 1,-5 2,-8 2,-6 5,-15 6,-17 1,-3 2,-6 3,-9 1,-3 1,-6 2,-8 1,-1 2,-3 3,-5 1,-2 2,-4 3,-7 1,-5 1,-11 1,-15 0,-1 -1,-2 -1,-2 0,0 0,0 0,0 0,0 0,-1 1,-2 1,0 2,-1 2,-2 1,0 2,-1 2,-1l0 0c1,1 1,3 2,3 1,0 1,-1 2,-2 0,-2 1,-3 1,-4 0,-1 1,-1 0,-2 0,0 0,0 0,0l-1 0 0 0c0,0 -1,0 -1,0 0,0 0,-1 0,-2 1,-1 0,-1 0,-2 0,0 0,-1 0,-1 0,-2 0,-3 -1,-4 0,-1 0,-1 -1,-2 0,-1 0,-1 0,-2 0,-1 -1,-3 0,-4 0,-1 0,-2 0,-2 1,0 1,0 1,0 1,0 1,1 1,2 1,0 1,1 1,1 1,1 1,1 1,2 0,1 1,3 2,3 0,0 0,0 1,0 2,-1 4,-6 4,-6 0,-1 2,-4 2,-7 0,-2 -1,-3 -2,-5 -2,-3 -2,-4 -3,-7z"/>
   <path class="fil3" d="M2056 2730l7 -37c-1,0 -2,0 -4,0l-3 37z"/>
   <path class="fil3" d="M1986 2694l7 34 -4 -34c-1,0 -2,0 -3,0z"/>
   <path class="fil5" d="M1884 1937c0,0 1,1 2,2 -1,-1 -2,-2 -3,-3 0,0 0,1 1,1z"/>
   <path class="fil5" d="M2165 1932c-6,6 -12,11 -18,15 6,-4 12,-9 18,-15z"/>
   <path class="fil5" d="M2137 1954c-5,4 -11,7 -16,11 5,-4 11,-7 16,-11z"/>
   <path class="fil5" d="M2200 1898c-9,10 -18,19 -27,27 9,-8 18,-17 27,-27z"/>
   <path class="fil5" d="M1867 1921c0,0 0,0 0,0 0,1 1,1 2,2 -1,-1 -2,-1 -2,-2z"/>
   <path class="fil5" d="M1951 1980c-5,-2 -10,-5 -15,-7 5,2 10,5 15,7z"/>
   <path class="fil5" d="M2063 1989c-8,2 -15,4 -23,4 8,0 15,-2 23,-4z"/>
   <path class="fil5" d="M2010 1994c-4,-1 -9,-1 -13,-2 4,1 9,1 13,2z"/>
   <path class="fil5" d="M1989 1991c-4,-1 -8,-2 -12,-3 4,1 8,2 12,3z"/>
   <path class="fil5" d="M1913 1959c-3,-2 -6,-4 -9,-6 3,2 6,4 9,6z"/>
   <path class="fil5" d="M1933 1971c-5,-2 -10,-5 -15,-8 5,3 10,6 15,8z"/>
   <path class="fil5" d="M1969 1986c-4,-1 -8,-2 -12,-4 4,2 8,3 12,4z"/>
   <path class="fil5" d="M1894 1946c2,1 3,2 5,3 -3,-2 -6,-4 -9,-7 3,2 4,4 4,4z"/>
   <path class="fil5" d="M2087 1982c-6,2 -12,4 -18,6 6,-2 12,-4 18,-6z"/>
   <path class="fil5" d="M2112 1970c-6,3 -11,6 -17,8 6,-2 11,-5 17,-8z"/>
   <path class="fil5" d="M2035 1994c-6,0 -11,0 -17,0 6,0 11,0 17,0z"/>
   <path class="fil3" d="M1857 2050l129 644c1,0 2,0 3,0l-34 -353 52 -101 -52 -64 69 -61 70 61 -52 64 52 101 -35 352c2,0 3,0 4,0l129 -637c0,0 -156,136 -335,-6z"/>
   <path class="fil6" d="M2290 2118c-30,-13 -67,-39 -98,-62l-129 637c195,-7 402,-79 502,-165 0,-124 -14,-203 -17,-264 -7,-160 -195,-118 -258,-146z"/>
   <path class="fil6" d="M1857 2050c179,142 335,6 335,6 -9,-16 -18,-38 -19,-55 -4,-36 -3,-74 12,-86 6,-4 10,-10 15,-17 -9,10 -18,19 -27,27 -2,3 -5,5 -8,7 -6,6 -12,11 -18,15 -3,3 -6,5 -10,7 -5,4 -11,7 -16,11 -3,1 -6,3 -9,5 -6,3 -11,6 -17,8 -3,1 -5,2 -8,4 -6,2 -12,4 -18,6 -2,0 -4,1 -6,1 -8,2 -15,4 -23,4 -2,0 -3,0 -5,1 -6,0 -11,0 -17,0 -3,0 -5,0 -8,0 -4,-1 -9,-1 -13,-2 -3,0 -5,0 -8,-1 -4,-1 -8,-2 -12,-3 -3,0 -5,-1 -8,-2 -4,-1 -8,-2 -12,-4 -2,-1 -4,-1 -6,-2 -5,-2 -10,-5 -15,-7 -1,-1 -2,-1 -3,-2 -5,-2 -10,-5 -15,-8 -1,-1 -3,-3 -5,-4 -3,-2 -6,-4 -9,-6 -2,-1 -4,-3 -5,-4 -2,-1 -3,-2 -5,-3 0,0 -1,-2 -4,-4 -1,-1 -3,-2 -4,-3 -1,-1 -2,-2 -2,-2 -1,0 -1,-1 -1,-1 -5,-4 -10,-9 -14,-13 -1,-1 -2,-1 -2,-2 12,20 18,55 20,86 -5,10 -52,100 -160,111 -69,7 -252,-14 -258,146 -3,61 -25,173 -50,297 166,82 359,130 567,133l-129 -644z"/>
   <path class="fil6" d="M2094 2176l-70 -61 -69 61 52 64 -52 101 34 353c7,0 13,0 19,0 6,0 11,0 16,0 12,0 24,0 35,-1l35 -352 -52 -101 52 -64z"/>
   <path class="fil6" d="M2256 1657c0,0 6,-33 5,-77l1 0c0,-2 -1,-3 -1,-4 0,-24 -3,-52 -11,-78 -25,-110 -86,-153 -86,-153 -86,-36 -186,-44 -285,0 0,0 -131,116 -114,320 0,0 -30,5 -19,59 10,51 29,67 44,69 13,2 31,71 58,109l0 0c0,0 4,8 19,23 0,0 0,0 0,0 0,1 1,1 2,2 4,4 8,8 14,13 1,1 2,2 3,3 1,1 3,2 4,3 3,3 6,5 9,7 1,1 3,3 5,4 3,2 6,4 9,6 2,1 4,3 5,4 5,3 10,6 15,8 1,1 2,1 3,2 5,2 10,5 15,7 2,1 4,1 6,2 4,2 8,3 12,4 3,1 5,2 8,2 4,1 8,2 12,3 3,1 5,1 8,1 4,1 9,2 13,2 3,0 5,0 8,0 6,0 11,0 17,0 2,0 3,0 5,-1 8,0 15,-2 23,-4 2,0 4,-1 6,-1 6,-2 12,-4 18,-6 3,-2 5,-3 8,-4 6,-2 11,-5 17,-8 3,-2 6,-4 9,-5 5,-4 11,-7 16,-11 4,-2 7,-4 10,-7 6,-4 12,-9 18,-15 3,-2 6,-4 8,-7 9,-8 18,-17 27,-27 29,-43 52,-130 52,-130 0,0 30,-24 30,-70 0,-46 -26,-45 -26,-45z"/>
   <path class="fil3" d="M721 2730l8 -37c-2,0 -3,0 -4,0l-4 37z"/>
   <path class="fil3" d="M651 2694l7 34 -3 -34c-1,0 -2,0 -4,0z"/>
   <path class="fil5" d="M549 1937c1,0 2,1 2,2 -1,-1 -2,-2 -2,-3 0,0 0,1 0,1z"/>
   <path class="fil5" d="M830 1932c-6,6 -12,11 -18,15 6,-4 12,-9 18,-15z"/>
   <path class="fil5" d="M803 1954c-6,4 -11,7 -16,11 5,-4 10,-7 16,-11z"/>
   <path class="fil5" d="M866 1898c-9,10 -18,19 -27,27 9,-8 18,-17 27,-27z"/>
   <path class="fil5" d="M532 1921c0,0 0,0 0,0 1,1 2,1 3,2 -1,-1 -2,-1 -3,-2z"/>
   <path class="fil5" d="M616 1980c-5,-2 -10,-5 -15,-7 5,2 10,5 15,7z"/>
   <path class="fil5" d="M729 1989c-8,2 -16,4 -23,4 7,0 15,-2 23,-4z"/>
   <path class="fil5" d="M676 1994c-5,-1 -9,-1 -13,-2 4,1 8,1 13,2z"/>
   <path class="fil5" d="M655 1991c-5,-1 -9,-2 -13,-3 4,1 8,2 13,3z"/>
   <path class="fil5" d="M579 1959c-3,-2 -7,-4 -9,-6 3,2 6,4 9,6z"/>
   <path class="fil5" d="M599 1971c-5,-2 -10,-5 -15,-8 5,3 10,6 15,8z"/>
   <path class="fil5" d="M635 1986c-4,-1 -8,-2 -12,-4 4,2 8,3 12,4z"/>
   <path class="fil5" d="M560 1946c1,1 3,2 4,3 -3,-2 -5,-4 -8,-7 2,2 4,4 4,4z"/>
   <path class="fil5" d="M752 1982c-6,2 -12,4 -18,6 6,-2 12,-4 18,-6z"/>
   <path class="fil5" d="M777 1970c-5,3 -11,6 -16,8 5,-2 11,-5 16,-8z"/>
   <path class="fil5" d="M700 1994c-5,0 -11,0 -16,0 5,0 11,0 16,0z"/>
   <path class="fil3" d="M522 2050l129 644c2,0 3,0 4,0l-35 -353 52 -101 -52 -64 70 -61 69 61 -52 64 52 101 -34 352c1,0 2,0 4,0l128 -637c0,0 -155,136 -335,-6z"/>
   <path class="fil6" d="M955 2118c-29,-13 -67,-39 -98,-62l-128 637c195,-7 377,-55 534,-132 -24,-124 -47,-236 -49,-297 -7,-160 -196,-118 -259,-146z"/>
   <path class="fil6" d="M522 2050c180,142 335,6 335,6 -8,-16 -17,-38 -19,-55 -3,-36 -2,-74 13,-86 5,-4 10,-10 15,-17 -9,10 -18,19 -27,27 -3,3 -6,5 -9,7 -6,6 -12,11 -18,15 -3,3 -6,5 -9,7 -6,4 -11,7 -16,11 -4,1 -7,3 -10,5 -5,3 -11,6 -16,8 -3,1 -6,2 -9,4 -6,2 -12,4 -18,6 -2,0 -4,1 -5,1 -8,2 -16,4 -23,4 -2,0 -4,0 -6,1 -5,0 -11,0 -16,0 -3,0 -6,0 -8,0 -5,-1 -9,-1 -13,-2 -3,0 -6,0 -8,-1 -5,-1 -9,-2 -13,-3 -2,0 -5,-1 -7,-2 -4,-1 -8,-2 -12,-4 -2,-1 -4,-1 -7,-2 -5,-2 -10,-5 -15,-7 0,-1 -1,-1 -2,-2 -5,-2 -10,-5 -15,-8 -2,-1 -4,-3 -5,-4 -3,-2 -6,-4 -9,-6 -2,-1 -4,-3 -6,-4 -1,-1 -3,-2 -4,-3 0,0 -2,-2 -4,-4 -2,-1 -3,-2 -5,-3 0,-1 -1,-2 -2,-2 0,0 0,-1 0,-1 -6,-4 -10,-9 -14,-13 -1,-1 -2,-1 -3,-2 12,20 19,55 20,86 -4,10 -52,100 -160,111 -68,7 -251,-14 -258,146 -3,61 -16,140 -16,264 160,119 326,163 533,166l-129 -644z"/>
   <path class="fil6" d="M759 2176l-69 -61 -70 61 52 64 -52 101 35 353c6,0 13,0 19,0 5,0 11,0 16,0 12,0 23,0 35,-1l34 -352 -52 -101 52 -64z"/>
   <path class="fil6" d="M921 1653c0,0 7,-33 6,-77l0 0c0,-2 0,-3 0,-4 -1,-24 -4,-52 -11,-78 -26,-110 -86,-153 -86,-153 -68,-61 -165,-72 -285,0 0,0 -131,116 -114,320 0,0 -31,5 -20,59 11,51 30,67 45,69 13,2 31,71 58,109l0 0c0,0 4,8 18,23 0,0 0,0 0,0 1,1 2,1 3,2 4,4 8,8 14,13 0,1 1,2 2,3 2,1 3,2 5,3 3,3 5,5 8,7 2,1 4,3 6,4 2,2 6,4 9,6 1,1 3,3 5,4 5,3 10,6 15,8 1,1 2,1 2,2 5,2 10,5 15,7 3,1 5,1 7,2 4,2 8,3 12,4 2,1 5,2 7,2 4,1 8,2 13,3 2,1 5,1 8,1 4,1 8,1 13,2 2,0 5,0 8,0 5,0 11,0 16,0 2,-1 4,-1 6,-1 7,0 15,-2 23,-4 1,0 3,-1 5,-1 6,-2 12,-4 18,-6 3,-2 6,-3 9,-4 5,-2 11,-5 16,-8 3,-2 6,-4 10,-5 5,-4 10,-7 16,-11 3,-2 6,-4 9,-7 6,-4 12,-9 18,-15 3,-2 6,-4 9,-7 9,-8 18,-17 27,-27 28,-43 51,-130 51,-130 0,0 31,-24 31,-70 0,-46 -27,-45 -27,-45z"/>
   <path class="fil7" d="M1747 2102c-41,-18 -93,-53 -136,-86l-179 885c271,-11 524,-76 742,-184 -34,-171 -65,-328 -69,-411 -9,-223 -271,-165 -358,-204z"/>
   <path class="fil7" d="M1146 2008c249,198 465,8 465,8 -12,-22 -25,-52 -27,-76 -4,-50 -3,-103 18,-119 7,-6 14,-14 20,-24 -12,14 -24,26 -37,38 -4,3 -8,6 -11,10 -9,7 -17,14 -25,20 -5,4 -9,7 -14,10 -7,5 -15,10 -22,15 -5,2 -9,5 -13,7 -8,4 -16,8 -23,11 -4,2 -8,4 -12,5 -8,4 -17,6 -25,9 -3,0 -5,1 -8,2 -11,3 -21,4 -32,6 -2,0 -5,0 -7,0 -8,1 -16,1 -23,1 -4,0 -7,0 -11,-1 -6,0 -12,-1 -18,-2 -4,0 -8,-1 -12,-1 -5,-2 -11,-3 -16,-4 -4,-1 -7,-2 -11,-3 -6,-2 -11,-4 -16,-6 -3,-1 -6,-2 -9,-3 -8,-3 -15,-7 -21,-10 -1,-1 -3,-1 -4,-2 -7,-4 -14,-8 -21,-12 -2,-1 -4,-3 -7,-5 -4,-3 -8,-5 -12,-8 -3,-2 -6,-4 -8,-6 -2,-1 -4,-3 -6,-4 0,0 -2,-2 -5,-5 -3,-2 -5,-3 -7,-5 -1,-1 -2,-2 -3,-3 0,0 0,0 -1,-1 -7,-6 -13,-12 -19,-18 -1,-1 -2,-2 -3,-3 16,29 25,76 28,120 -7,13 -72,138 -222,153 -95,10 -349,-19 -359,204 -3,83 -34,240 -69,411 230,114 499,180 787,185l-179 -894z"/>
   <path class="fil8" d="M1183 1851c1,1 2,2 3,3 -1,-1 -2,-3 -4,-4 1,1 1,1 1,1z"/>
   <path class="fil8" d="M1574 1845c-9,7 -17,14 -25,20 8,-6 16,-13 25,-20z"/>
   <path class="fil8" d="M1535 1875c-7,5 -15,10 -22,15 7,-5 15,-10 22,-15z"/>
   <path class="fil8" d="M1622 1797c-12,14 -24,26 -37,38 13,-12 25,-24 37,-38z"/>
   <path class="fil8" d="M1160 1829c0,0 0,0 0,0 1,1 2,2 3,3 -1,-1 -2,-2 -3,-3z"/>
   <path class="fil8" d="M1277 1911c-8,-3 -15,-7 -21,-10 6,3 13,7 21,10z"/>
   <path class="fil8" d="M1432 1924c-11,3 -21,4 -32,6 11,-2 21,-3 32,-6z"/>
   <path class="fil8" d="M1359 1930c-6,0 -12,-1 -18,-2 6,1 12,2 18,2z"/>
   <path class="fil8" d="M1329 1927c-5,-2 -11,-3 -16,-4 5,1 11,2 16,4z"/>
   <path class="fil8" d="M1224 1882c-4,-2 -8,-5 -12,-8 4,3 8,5 12,8z"/>
   <path class="fil8" d="M1252 1899c-7,-4 -14,-8 -21,-12 7,4 14,8 21,12z"/>
   <path class="fil8" d="M1302 1920c-6,-2 -11,-4 -16,-6 5,2 10,4 16,6z"/>
   <path class="fil8" d="M1198 1864c2,1 4,3 6,4 -4,-3 -8,-6 -11,-9 3,3 5,5 5,5z"/>
   <path class="fil8" d="M1465 1913c-8,4 -17,6 -25,9 8,-3 17,-5 25,-9z"/>
   <path class="fil8" d="M1500 1897c-8,4 -16,8 -23,11 7,-3 15,-7 23,-11z"/>
   <path class="fil8" d="M1393 1930c-8,1 -16,1 -23,1 7,0 15,0 23,-1z"/>
   <path class="fil3" d="M1146 2008l179 894c2,0 3,0 5,0l-48 -490 72 -140 -72 -89 96 -85 97 85 -72 89 72 140 -48 489c2,0 4,0 5,0l179 -885c0,0 -216,190 -465,-8z"/>
   <path class="fil9" d="M1475 2183l-97 -85 -96 85 72 89 -72 140 48 490c9,0 18,0 26,0 8,0 15,0 22,0 17,0 33,-1 49,-1l48 -489 -72 -140 72 -89z"/>
   <path class="fil7" d="M1700 1458c0,0 9,-47 7,-108l1 0c0,-2 -1,-3 -1,-5 -1,-34 -5,-72 -15,-109 -36,-151 -119,-212 -119,-212 -142,-75 -282,-78 -396,0 0,0 -181,162 -158,444 0,0 -42,8 -27,83 14,71 41,93 61,96 19,2 44,98 81,150l0 0c0,0 6,12 26,32 0,0 0,0 0,0 1,1 2,2 3,3 6,6 12,12 19,18 2,1 3,3 4,4 2,1 4,3 7,5 3,3 7,6 11,9 2,2 5,4 8,6 4,3 8,6 12,8 3,2 5,4 7,5 7,4 14,8 21,12 1,1 3,1 4,2 6,3 13,7 21,10 3,1 6,2 9,3 5,2 10,4 16,6 4,1 7,2 11,3 5,1 11,2 16,4 4,0 8,1 12,1 6,1 12,2 18,2 4,1 7,1 11,1 7,0 15,0 23,-1 2,0 5,0 7,0 11,-2 21,-3 32,-6 3,-1 5,-2 8,-2 8,-3 17,-5 25,-9 4,-1 8,-3 12,-5 7,-3 15,-7 23,-11 4,-2 8,-5 13,-7 7,-5 15,-10 22,-15 5,-3 9,-6 14,-10 8,-6 16,-13 25,-20 3,-4 7,-7 11,-10 13,-12 25,-24 37,-38 40,-59 72,-180 72,-180 0,0 42,-33 42,-97 0,-63 -36,-62 -36,-62z"/>
  </g>
 </g>
</svg>
