<?xml version="1.0" encoding="UTF-8"?>
<!DOCTYPE svg PUBLIC "-//W3C//DTD SVG 1.1//EN" "http://www.w3.org/Graphics/SVG/1.1/DTD/svg11.dtd">
<!-- Creator: CorelDRAW X7 -->
<svg xmlns="http://www.w3.org/2000/svg" xml:space="preserve" width="99.3354mm" height="90.1633mm" version="1.1" style="shape-rendering:geometricPrecision; text-rendering:geometricPrecision; image-rendering:optimizeQuality; fill-rule:evenodd; clip-rule:evenodd"
viewBox="0 0 6339 5753"
 xmlns:xlink="http://www.w3.org/1999/xlink">
 <defs>
  <style type="text/css">
   <![CDATA[
    .str0 {stroke:black;stroke-width:4.86233}
    .fil1 {fill:none;fill-rule:nonzero}
    .fil2 {fill:black;fill-rule:nonzero}
    .fil0 {fill:red;fill-rule:nonzero}
   ]]>
  </style>
 </defs>
 <g id="Layer_x0020_1">
  <metadata id="CorelCorpID_0Corel-Layer"/>
  <path class="fil0" d="M2 934c0,-117 6,-231 19,-342 12,-112 40,-210 86,-298 44,-86 111,-157 202,-210 89,-53 213,-80 370,-80 157,0 281,27 373,80 91,53 159,124 203,210 45,88 73,186 84,298 11,113 17,227 17,344l0 3217c8,119 32,227 73,319 17,41 38,80 66,118 26,39 58,72 96,103 36,29 79,53 129,71 52,18 109,26 174,26 66,0 124,-8 176,-26 51,-18 96,-42 132,-71 38,-31 70,-64 96,-103 28,-38 49,-77 65,-118 41,-92 64,-200 70,-319l0 -3217c0,-117 6,-231 17,-344 11,-112 39,-210 83,-298 45,-86 112,-157 202,-210 89,-53 214,-80 375,-80 157,0 281,27 370,80 90,53 157,124 202,210 46,88 73,186 86,298 13,111 18,225 18,342l0 3110c0,284 -46,532 -136,744 -92,213 -220,389 -387,533 -167,142 -368,250 -600,321 -233,73 -489,109 -769,109 -282,0 -540,-38 -771,-113 -231,-74 -430,-184 -597,-328 -167,-144 -295,-322 -387,-535 -91,-212 -137,-455 -137,-731l0 -3110z"/>
  <path id="1" class="fil1 str0" d="M2 934c0,-117 6,-231 19,-342 12,-112 40,-210 86,-298 44,-86 111,-157 202,-210 89,-53 213,-80 370,-80 157,0 281,27 373,80 91,53 159,124 203,210 45,88 73,186 84,298 11,113 17,227 17,344l0 3217c8,119 32,227 73,319 17,41 38,80 66,118 26,39 58,72 96,103 36,29 79,53 129,71 52,18 109,26 174,26 66,0 124,-8 176,-26 51,-18 96,-42 132,-71 38,-31 70,-64 96,-103 28,-38 49,-77 65,-118 41,-92 64,-200 70,-319l0 -3217c0,-117 6,-231 17,-344 11,-112 39,-210 83,-298 45,-86 112,-157 202,-210 89,-53 214,-80 375,-80 157,0 281,27 370,80 90,53 157,124 202,210 46,88 73,186 86,298 13,111 18,225 18,342l0 3110c0,284 -46,532 -136,744 -92,213 -220,389 -387,533 -167,142 -368,250 -600,321 -233,73 -489,109 -769,109 -282,0 -540,-38 -771,-113 -231,-74 -430,-184 -597,-328 -167,-144 -295,-322 -387,-535 -91,-212 -137,-455 -137,-731l0 -3110z"/>
  <path class="fil2 str0" d="M3805 3460c-4,172 58,813 -113,1200 -366,828 -1123,1403 -1123,126l0 -3854c0,-117 3,-231 10,-342 7,-111 29,-210 68,-298 38,-86 98,-157 181,-210 82,-53 201,-80 352,-80l1346 0c337,17 639,87 905,212 114,54 224,123 333,205 107,80 203,181 288,299 86,118 155,259 206,420 52,162 78,348 78,561 0,290 -46,546 -136,765 -92,218 -224,402 -397,549 -173,149 -383,261 -632,335 -249,75 -530,112 -844,112l-522 0zm557 -969c137,-8 261,-40 369,-98 46,-24 92,-56 135,-94 45,-37 84,-85 120,-140 35,-56 62,-123 83,-199 21,-75 31,-163 31,-262 0,-92 -10,-173 -31,-242 -21,-70 -47,-130 -79,-180 -33,-51 -70,-93 -111,-129 -41,-35 -84,-66 -127,-91 -104,-51 -220,-82 -348,-93l-599 0 0 1528 557 0z"/>
 </g>
</svg>
